<svg width="50" height="49" viewBox="0 0 50 49" fill="none" xmlns="http://www.w3.org/2000/svg">
<g clip-path="url(#clip0_226_1215)">
<rect width="48.785" height="48.785" transform="translate(0.44873 0.214844)" fill="white"/>
<path d="M6.54686 3.26391C5.7382 3.26391 4.96266 3.58515 4.39085 4.15696C3.81904 4.72877 3.4978 5.50431 3.4978 6.31297V30.7055C3.4978 31.5142 3.81904 32.2897 4.39085 32.8615C4.96266 33.4333 5.7382 33.7546 6.54686 33.7546H35.7752C37.3924 33.7549 38.9432 34.3976 40.0866 35.5413L46.1847 41.6394V6.31297C46.1847 5.50431 45.8635 4.72877 45.2917 4.15696C44.7198 3.58515 43.9443 3.26391 43.1356 3.26391H6.54686ZM43.1356 0.214844C44.753 0.214844 46.3041 0.857324 47.4477 2.00094C48.5913 3.14457 49.2338 4.69565 49.2338 6.31297V45.3197C49.2337 45.6213 49.1442 45.9162 48.9764 46.1669C48.8087 46.4177 48.5704 46.613 48.2916 46.7283C48.0128 46.8435 47.7061 46.8734 47.4103 46.8143C47.1145 46.7551 46.8429 46.6096 46.6299 46.396L37.9309 37.697C37.3592 37.1252 36.5838 36.8038 35.7752 36.8036H6.54686C4.92954 36.8036 3.37845 36.1611 2.23483 35.0175C1.09121 33.8739 0.44873 32.3228 0.44873 30.7055V6.31297C0.44873 4.69565 1.09121 3.14457 2.23483 2.00094C3.37845 0.857324 4.92954 0.214844 6.54686 0.214844L43.1356 0.214844Z" fill="#0F6BF2"/>
</g>
<defs>
<clipPath id="clip0_226_1215">
<rect width="48.785" height="48.785" fill="white" transform="translate(0.44873 0.214844)"/>
</clipPath>
</defs>
</svg>
