<svg width="120" height="120" viewBox="0 0 120 120" fill="none" xmlns="http://www.w3.org/2000/svg">
<path d="M0 11.25C0 10.2554 0.395088 9.30161 1.09835 8.59835C1.80161 7.89509 2.75544 7.5 3.75 7.5H15C15.8365 7.50023 16.6489 7.78013 17.308 8.29519C17.9671 8.81024 18.4351 9.53088 18.6375 10.3425L21.675 22.5H108.75C109.301 22.5005 109.844 22.6223 110.343 22.8566C110.841 23.091 111.281 23.4322 111.633 23.856C111.984 24.2798 112.238 24.7759 112.377 25.3089C112.515 25.8419 112.534 26.3988 112.433 26.94L101.183 86.94C101.022 87.7993 100.566 88.5755 99.8932 89.1342C99.2208 89.6929 98.3743 89.9992 97.5 90H30C29.1257 89.9992 28.2792 89.6929 27.6068 89.1342C26.9344 88.5755 26.4784 87.7993 26.3175 86.94L15.075 27.0525L12.075 15H3.75C2.75544 15 1.80161 14.6049 1.09835 13.9017C0.395088 13.1984 0 12.2446 0 11.25ZM23.265 30L33.1125 82.5H94.3875L104.235 30H23.265ZM37.5 90C33.5218 90 29.7064 91.5804 26.8934 94.3934C24.0804 97.2064 22.5 101.022 22.5 105C22.5 108.978 24.0804 112.794 26.8934 115.607C29.7064 118.42 33.5218 120 37.5 120C41.4783 120 45.2936 118.42 48.1066 115.607C50.9197 112.794 52.5 108.978 52.5 105C52.5 101.022 50.9197 97.2064 48.1066 94.3934C45.2936 91.5804 41.4783 90 37.5 90ZM90 90C86.0218 90 82.2065 91.5804 79.3934 94.3934C76.5804 97.2064 75 101.022 75 105C75 108.978 76.5804 112.794 79.3934 115.607C82.2065 118.42 86.0218 120 90 120C93.9783 120 97.7936 118.42 100.607 115.607C103.42 112.794 105 108.978 105 105C105 101.022 103.42 97.2064 100.607 94.3934C97.7936 91.5804 93.9783 90 90 90ZM37.5 97.5C39.4891 97.5 41.3968 98.2902 42.8033 99.6967C44.2098 101.103 45 103.011 45 105C45 106.989 44.2098 108.897 42.8033 110.303C41.3968 111.71 39.4891 112.5 37.5 112.5C35.5109 112.5 33.6032 111.71 32.1967 110.303C30.7902 108.897 30 106.989 30 105C30 103.011 30.7902 101.103 32.1967 99.6967C33.6032 98.2902 35.5109 97.5 37.5 97.5ZM90 97.5C91.9891 97.5 93.8968 98.2902 95.3033 99.6967C96.7098 101.103 97.5 103.011 97.5 105C97.5 106.989 96.7098 108.897 95.3033 110.303C93.8968 111.71 91.9891 112.5 90 112.5C88.0109 112.5 86.1032 111.71 84.6967 110.303C83.2902 108.897 82.5 106.989 82.5 105C82.5 103.011 83.2902 101.103 84.6967 99.6967C86.1032 98.2902 88.0109 97.5 90 97.5V97.5Z" fill="white"/>
</svg>
