<svg width="87" height="87" viewBox="0 0 87 87" fill="none" xmlns="http://www.w3.org/2000/svg">
<g clip-path="url(#clip0_226_1207)">
<path d="M63.3584 23.1504L54.5664 23.6952L54.7958 21.1814C54.8957 20.0534 54.795 18.9167 54.4985 17.8239C53.3398 13.6568 49.617 10.8843 45.2347 10.9251C40.8524 10.9659 37.1818 13.8072 36.1011 17.995C35.825 19.0931 35.7455 20.2314 35.8663 21.3572L36.1422 23.8665L27.3417 23.4854L27.2414 23.4836C26.4834 23.4915 25.7594 23.7998 25.2284 24.3408C24.6974 24.8818 24.4026 25.6114 24.4088 26.3694L24.5119 37.4223L26.6264 39.2991L31.6899 38.7422C32.366 38.6677 33.05 38.713 33.7104 38.8759C36.2042 39.5195 37.8962 41.7208 37.9207 44.3535C37.9452 46.9862 36.2946 49.2182 33.8132 49.9086C33.1554 50.0839 32.4719 50.142 31.794 50.0802L26.7224 49.6174L24.6433 51.5333L24.7549 63.5394C24.7584 63.9149 24.8358 64.286 24.9827 64.6316C25.1297 64.9772 25.3432 65.2904 25.6112 65.5535C25.8792 65.8165 26.1963 66.0242 26.5446 66.1647C26.8928 66.3051 27.2653 66.3756 27.6408 66.3721L57.1857 66.0976C58.4373 66.086 59.6744 65.8279 60.8263 65.3382C61.9782 64.8485 63.0223 64.1367 63.8991 63.2434C64.7759 62.3502 65.4682 61.293 65.9364 60.1322C66.4046 58.9714 66.6396 57.7297 66.628 56.4781L66.3441 25.9798C66.3361 25.2218 66.0278 24.4979 65.4869 23.9669C64.9459 23.4359 64.2164 23.1411 63.4584 23.1472L63.3584 23.1504ZM62.8156 56.5136C62.8226 57.2646 62.6816 58.0096 62.4007 58.7061C62.1198 59.4026 61.7044 60.0369 61.1783 60.5728C60.6522 61.1088 60.0257 61.5359 59.3346 61.8297C58.6435 62.1236 57.9012 62.2784 57.1502 62.2854L28.5577 62.5511L28.475 53.6051L31.4585 53.8775L31.477 53.8789C32.6049 53.9788 33.7416 53.8782 34.8344 53.5817C39.0015 52.4231 41.7739 48.7003 41.7332 44.3179C41.6924 39.9355 38.8512 36.2651 34.6634 35.1842C33.5653 34.9081 32.4269 34.8286 31.3011 34.9494L28.3048 35.279L28.231 27.3394L38.1982 27.771L40.1755 25.6581L39.6594 20.9676C39.585 20.2915 39.6302 19.6076 39.7931 18.9472C40.4367 16.4535 42.6381 14.7615 45.2707 14.7369C47.9034 14.7124 50.1355 16.3629 50.8258 18.8446C51.001 19.5018 51.0589 20.1848 50.997 20.8622L50.5682 25.5615L52.5843 27.6374L62.5419 27.0203L62.8156 56.5136Z" fill="#0F6BF2"/>
</g>
<defs>
<clipPath id="clip0_226_1207">
<rect width="61" height="61" fill="white" transform="translate(0.496094 43.5327) rotate(-45.5327)"/>
</clipPath>
</defs>
</svg>
