<svg xmlns="http://www.w3.org/2000/svg" xmlns:xlink="http://www.w3.org/1999/xlink" width="30" height="30" viewBox="0 0 30 30">
  <defs>
    <clipPath id="clip-path">
      <rect id="Rectangle_684" data-name="Rectangle 684" width="30" height="30" transform="translate(-6588 -3095)" fill="#fff"/>
    </clipPath>
  </defs>
  <g id="_clearly_defined" data-name=" clearly_defined" transform="translate(6588 3095)">
    <g id="Mask_Group_24" data-name="Mask Group 24" clip-path="url(#clip-path)">
      <g id="_clearly_defined-2" data-name=" clearly_defined" transform="translate(-6585.954 -3093.554)">
        <path id="Path_6513" data-name="Path 6513" d="M14.891,15.241a1.085,1.085,0,0,1,.687,1.188c-.024.426.007.852-.01,1.279-.008.191.071.251.236.305a10.377,10.377,0,0,1,6.917,6.617c.082.222.1.541.255.644.175.115.478.038.726.04h.957a.915.915,0,0,1,.971.967q.008,1.785,0,3.569a.915.915,0,0,1-.955.984c-.505.012-1.011.01-1.515,0a.251.251,0,0,0-.294.217A10.283,10.283,0,0,1,18.9,36.62a.426.426,0,0,0-.194.4c.006,1.279-.022,2.557.013,3.836a1.51,1.51,0,0,1-1.009,1.667H8.082A.44.44,0,0,0,8,42.467a1.3,1.3,0,0,1-.917-1.315c0-1.341,0-2.68,0-4.02a.438.438,0,0,0-.213-.412,10.416,10.416,0,0,1-4.09-5.631c-.063-.2-.142-.261-.346-.255-.469.015-.939.009-1.409,0A.931.931,0,0,1,0,29.813V26.326a.923.923,0,0,1,1.007-1.01c.541,0,1.081,0,1.621,0a.192.192,0,0,0,.05-.014,10.638,10.638,0,0,1,7.379-7.379c0-.482.02-.987-.006-1.492a1.089,1.089,0,0,1,.688-1.186Zm2.967,17.023V23.5c0-.089,0-.178,0-.266a.425.425,0,0,0-.465-.436c-.328-.006-.656-.012-.984.006a.3.3,0,0,0-.218.156c-.1.237-.166.486-.241.732a.464.464,0,0,1-.487.369H10.331a.465.465,0,0,1-.486-.369,7.168,7.168,0,0,0-.242-.732.3.3,0,0,0-.218-.156c-.274-.019-.549-.008-.824-.008-.508,0-.627.119-.627.624V41.053c0,.486.13.615.615.615h8.642c.558,0,.67-.111.67-.668Zm-2.285-13.4v.877a.92.92,0,0,1-1,1.018q-1.755.013-3.51,0a.922.922,0,0,1-1-1.017v-.908a9.59,9.59,0,0,0-4.412,2.815,9.437,9.437,0,0,0-2.06,3.67h.788c.816,0,1.137.325,1.137,1.151v3.249c0,.781-.337,1.122-1.115,1.123H3.612a9.4,9.4,0,0,0,3.469,4.947v-10.9c0-.551-.009-1.1,0-1.652a1.259,1.259,0,0,1,1.279-1.287c3.023,0,6.046-.009,9.068.009a1.5,1.5,0,0,1,.76.254,1.271,1.271,0,0,1,.52,1.161q0,5.994,0,11.987v.327c1.432-.977,3.214-3.608,3.293-4.848-.292,0-.583,0-.875,0a.927.927,0,0,1-1.007-1.015q-.006-1.745,0-3.489a.928.928,0,0,1,1.028-1.018h.872A9.532,9.532,0,0,0,15.573,18.861Zm-.867-2.749H10.926c-.006.1-.015.173-.015.251,0,1.09.006,2.182-.006,3.272,0,.234.085.277.293.276,1.08-.009,2.16,0,3.24,0,.086,0,.172-.011.269-.017ZM24.75,29.971a.373.373,0,0,0,.026-.082c0-1.179,0-2.359.007-3.538,0-.195-.112-.184-.242-.183H21a2.115,2.115,0,0,0-.026.227c0,1.117,0,2.235-.006,3.352,0,.217.093.244.273.242,1.089-.006,2.178,0,3.268,0C24.584,29.986,24.662,29.977,24.75,29.971Zm-23.9-1.9c0,.568,0,1.137,0,1.7,0,.162.052.217.213.213q1.7-.006,3.4,0c.151,0,.2-.058.2-.2q0-1.7,0-3.406c0-.161-.053-.213-.213-.213q-1.686.007-3.374,0c-.175,0-.228.056-.225.229C.857,26.952.852,27.513.852,28.07ZM15.3,22.824H10.486c0,.325.155.395.439.392q1.98-.023,3.96,0C15.189,23.222,15.3,23.108,15.3,22.824Z" transform="translate(0 -15.24)"/>
        <path id="Path_6514" data-name="Path 6514" d="M122.66,194.4a.73.73,0,0,1,.193.055.861.861,0,0,0,1.007-.055.568.568,0,0,0,.213-.276c.181-.438.213-.468.683-.469.257,0,.514.007.771,0a.48.48,0,0,1,.5.347.824.824,0,0,0,1.165.489.493.493,0,0,1,.623.114c.2.205.394.409.6.6a.481.481,0,0,1,.111.666c-.251.382.041.67.162.978.034.087.224.121.347.165a.477.477,0,0,1,.35.5c0,.293-.006.586,0,.879a.51.51,0,0,1-.377.54.813.813,0,0,0-.475,1.127.516.516,0,0,1-.122.669c-.2.186-.4.382-.583.583a.522.522,0,0,1-.67.12.814.814,0,0,0-1.113.456.53.53,0,0,1-.578.4c-.265-.013-.531-.011-.8,0a.525.525,0,0,1-.568-.378.815.815,0,0,0-1.125-.477.52.52,0,0,1-.669-.123c-.185-.2-.381-.4-.583-.584a.476.476,0,0,1-.111-.666c.257-.384-.053-.667-.16-.98-.027-.079-.209-.113-.325-.151a.5.5,0,0,1-.377-.54c.007-.293,0-.586,0-.879a.445.445,0,0,1,.355-.5c.462-.083.471-.5.617-.808.036-.077-.062-.229-.117-.338a.507.507,0,0,1,.118-.669c.214-.2.409-.419.625-.616A1.763,1.763,0,0,1,122.66,194.4Zm5.869,3.575a.241.241,0,0,0-.213-.325.6.6,0,0,1-.456-.5,2.044,2.044,0,0,0-.232-.563.609.609,0,0,1-.03-.7c.1-.162.038-.265-.081-.389a.253.253,0,0,0-.364-.063.629.629,0,0,1-.7-.028,1.964,1.964,0,0,0-.536-.224.631.631,0,0,1-.531-.49c-.04-.184-.157-.2-.313-.2s-.269.026-.31.2a.613.613,0,0,1-.509.478,2.274,2.274,0,0,0-.585.245.6.6,0,0,1-.651.021.274.274,0,0,0-.389.057.3.3,0,0,0-.061.416.579.579,0,0,1-.02.627,3.3,3.3,0,0,0-.263.639.579.579,0,0,1-.406.448.311.311,0,0,0-.276.345c0,.22.105.276.269.323a.581.581,0,0,1,.411.444,3.187,3.187,0,0,0,.261.639.592.592,0,0,1,.016.651.276.276,0,0,0,.062.392c.133.13.229.165.386.067a.588.588,0,0,1,.673.023,2.025,2.025,0,0,0,.561.232.639.639,0,0,1,.526.5c.04.183.153.2.311.2s.268-.026.308-.2a.629.629,0,0,1,.53-.491,2.123,2.123,0,0,0,.561-.235.584.584,0,0,1,.649-.03.286.286,0,0,0,.41-.061.276.276,0,0,0,.055-.394.594.594,0,0,1,.021-.651,2.661,2.661,0,0,0,.254-.612.6.6,0,0,1,.445-.474C128.472,198.252,128.581,198.169,128.529,197.976Z" transform="translate(-112.178 -180.981)"/>
        <path id="Path_6515" data-name="Path 6515" d="M166.9,343.516a1.208,1.208,0,1,1-.344-.863A1.208,1.208,0,0,1,166.9,343.516Zm-1.558-.007a.355.355,0,1,0,.338-.366A.355.355,0,0,0,165.339,343.509Z" transform="translate(-152.797 -319.056)"/>
        <path id="Path_6516" data-name="Path 6516" d="M161.88,39.2l.762-.941c.222-.274.47-.327.681-.146.194.166.188.426-.021.683-.338.418-.677.845-1.019,1.26a.44.44,0,0,1-.759.038q-.341-.336-.676-.677a.445.445,0,0,1-.071-.656c.188-.195.431-.173.673.061.121.117.239.237.36.355A.5.5,0,0,0,161.88,39.2Z" transform="translate(-149.25 -36.391)"/>
        <path id="Path_6517" data-name="Path 6517" d="M303.468,181.172c.3-.371.56-.7.823-1.017a.447.447,0,0,1,.646-.134.439.439,0,0,1,.022.658c-.355.443-.707.886-1.066,1.323a.428.428,0,0,1-.706.042c-.254-.246-.506-.5-.751-.752a.426.426,0,0,1-.021-.617.416.416,0,0,1,.614.017C303.175,180.833,303.3,180.991,303.468,181.172Z" transform="translate(-280.819 -168.233)"/>
        <path id="Path_6518" data-name="Path 6518" d="M20.2,181.164c.3-.376.558-.693.816-1.008.207-.254.462-.305.664-.142s.2.422-.007.681q-.506.632-1.019,1.26c-.25.306-.483.322-.76.052-.228-.222-.453-.449-.676-.677s-.254-.489-.061-.675.426-.163.652.067C19.936,180.854,20.051,181,20.2,181.164Z" transform="translate(-17.671 -168.221)"/>
        <path id="Path_6519" data-name="Path 6519" d="M149.808,225.094a2.415,2.415,0,1,1,1.71-.709A2.422,2.422,0,0,1,149.808,225.094Zm.009-.852a1.563,1.563,0,1,0-1.115-.451A1.563,1.563,0,0,0,149.817,224.241Z" transform="translate(-136.91 -205.686)"/>
      </g>
    </g>
  </g>
</svg>
