<svg width="68" height="51" viewBox="0 0 68 51" fill="none" xmlns="http://www.w3.org/2000/svg">
<path d="M57.5645 4.22975C53.2297 2.27488 48.5831 0.829971 43.7241 0.00835826C43.6808 5.12286e-05 43.636 0.00540458 43.5959 0.023678C43.5558 0.0419515 43.5224 0.072241 43.5003 0.110352C42.9053 1.15578 42.2423 2.51853 41.7777 3.59512C36.6242 2.82518 31.385 2.82518 26.2316 3.59512C25.7141 2.40197 25.1305 1.23858 24.4835 0.110352C24.4616 0.0717718 24.4284 0.0407971 24.3884 0.0215611C24.3484 0.00232506 24.3035 -0.0042577 24.2597 0.0026917C19.4035 0.824304 14.7569 2.26921 10.4192 4.22691C10.3819 4.24257 10.3503 4.26926 10.3286 4.30341C1.51148 17.2651 -0.905279 29.9066 0.281854 42.3894C0.285157 42.42 0.294647 42.4496 0.309747 42.4764C0.324846 42.5031 0.345239 42.5266 0.369684 42.5452C5.51598 46.2919 11.256 49.146 17.3494 50.988C17.3918 51.0011 17.4373 51.001 17.4797 50.9879C17.5222 50.9748 17.5597 50.9491 17.5874 50.9143C18.8986 49.1608 20.0605 47.3005 21.0609 45.3529C21.0748 45.3263 21.0828 45.2969 21.0844 45.267C21.086 45.237 21.0811 45.207 21.0701 45.1791C21.0591 45.1511 21.0422 45.1259 21.0205 45.105C20.9989 45.0842 20.9731 45.0682 20.9448 45.0582C19.1145 44.369 17.3411 43.5373 15.6409 42.5707C15.6104 42.5533 15.5846 42.5285 15.566 42.4987C15.5474 42.4689 15.5364 42.4349 15.5342 42.3998C15.5319 42.3647 15.5384 42.3295 15.5531 42.2976C15.5678 42.2656 15.5902 42.2378 15.6182 42.2166C15.9752 41.9531 16.3322 41.6783 16.6722 41.4035C16.7028 41.3788 16.7397 41.363 16.7787 41.358C16.8177 41.353 16.8574 41.3589 16.8932 41.3751C28.0194 46.3728 40.0692 46.3728 51.0651 41.3751C51.101 41.358 51.141 41.3513 51.1806 41.3558C51.2202 41.3603 51.2577 41.3758 51.2889 41.4006C51.6289 41.6783 51.983 41.9531 52.3429 42.2166C52.3712 42.2373 52.394 42.2648 52.4091 42.2965C52.4242 42.3282 52.4313 42.3631 52.4296 42.3982C52.4279 42.4333 52.4175 42.4674 52.3994 42.4975C52.3813 42.5276 52.3561 42.5528 52.3259 42.5707C50.6316 43.5453 48.8693 44.3698 47.0192 45.0554C46.9908 45.0657 46.9649 45.082 46.9432 45.1031C46.9216 45.1242 46.9047 45.1497 46.8937 45.1778C46.8827 45.206 46.8779 45.2362 46.8795 45.2664C46.8811 45.2965 46.8891 45.326 46.903 45.3529C47.923 47.2993 49.0903 49.1521 50.3737 50.9115C50.4004 50.9476 50.4376 50.9746 50.4802 50.9888C50.5228 51.003 50.5687 51.0037 50.6117 50.9908C56.7156 49.1539 62.4649 46.2985 67.6169 42.5452C67.642 42.5277 67.6631 42.5049 67.6788 42.4785C67.6944 42.4521 67.7042 42.4227 67.7076 42.3922C69.1242 27.9602 65.3333 15.4207 57.6524 4.30908C57.6335 4.27297 57.6024 4.24482 57.5645 4.22975ZM22.724 34.7881C19.3751 34.7881 16.6127 31.7594 16.6127 28.0452C16.6127 24.3281 19.3213 21.3023 22.724 21.3023C26.1523 21.3023 28.8892 24.3536 28.8354 28.0452C28.8354 31.7623 26.1268 34.7881 22.724 34.7881V34.7881ZM45.3192 34.7881C41.9675 34.7881 39.2079 31.7594 39.2079 28.0452C39.2079 24.3281 41.9137 21.3023 45.3192 21.3023C48.7475 21.3023 51.4844 24.3536 51.4305 28.0452C51.4305 31.7623 48.7503 34.7881 45.3192 34.7881V34.7881Z" fill="#455A64"/>
</svg>
