<svg width="153" height="62" viewBox="0 0 153 62" fill="none" xmlns="http://www.w3.org/2000/svg">
<g clip-path="url(#clip0_162_281)">
<path d="M33.901 40.8709H30.7846L27.3735 26.8896L23.8782 40.8709H20.7829L14.5713 19.7515H18.572L22.2989 34.5119L25.8996 19.7515H28.7632L32.3007 34.5119L36.0487 19.7515H40.0494L33.901 40.8709Z" fill="white"/>
<path d="M56.3684 34.6384H44.1136C44.5768 36.5545 46.2192 37.7547 48.4933 37.7547C50.0725 37.7547 50.999 37.3336 51.9887 36.1755H56.1367C55.0839 39.4392 51.7991 41.229 48.5986 41.229C43.7767 41.229 40.0287 37.6284 40.0287 32.996C40.0287 28.3426 43.7135 24.6577 48.367 24.6577C53.0836 24.6577 56.5368 28.2583 56.5368 33.1855C56.5158 33.754 56.4947 34.0909 56.3684 34.6384ZM48.4091 28.1531C46.1561 28.1531 44.5979 29.269 44.0083 31.2904H52.7888C52.2834 29.269 50.7463 28.1531 48.4091 28.1531Z" fill="white"/>
<path d="M67.9488 41.2499C65.6116 41.2499 64.0955 40.5972 62.4531 38.8495V40.8709H58.9578V19.7515H62.769V26.4895C64.2218 25.0366 65.6326 24.4681 67.6961 24.4681C72.2443 24.4681 75.6765 28.0687 75.6765 32.8485C75.6765 37.6072 72.4127 41.2499 67.9488 41.2499ZM67.1487 27.9424C64.4956 27.9424 62.5373 29.9638 62.5373 32.8274C62.5373 35.7121 64.4745 37.7546 67.2329 37.7546C69.9491 37.7546 71.8442 35.7542 71.8442 32.8695C71.8442 30.0269 69.8649 27.9424 67.1487 27.9424Z" fill="white"/>
<path d="M84.4349 42.2821C80.35 42.2821 77.3389 39.4605 77.1073 35.4809H80.9606C81.2133 37.4812 82.5609 38.7867 84.4138 38.7867C86.33 38.7867 87.7407 37.2917 87.7407 35.2493C87.7407 33.1015 86.0983 31.6908 83.5716 31.6908H82.9399V28.0059C85.3614 27.9427 86.2036 27.29 86.2036 25.8161C86.2036 24.6369 85.4245 23.8157 84.3296 23.8157C83.2978 23.8157 82.7293 24.4264 82.5398 25.7318H78.6655C78.9602 22.1523 81.3396 20.2993 84.2875 20.2993C87.5512 20.2993 89.9937 22.7418 89.9937 26.0056C89.9937 27.648 89.4463 28.7639 88.204 29.6483C90.3938 30.6169 91.5098 32.4698 91.5098 35.1229C91.5519 39.25 88.5409 42.2821 84.4349 42.2821Z" fill="white"/>
<path d="M95.3002 20.8882H102.438C104.312 20.8882 105.849 21.4778 107.05 22.678C108.25 23.8782 108.839 25.4153 108.839 27.3104C108.839 29.2054 108.229 30.7636 107.029 31.9638C105.828 33.164 104.27 33.7746 102.396 33.7746H97.7849V40.9127H95.2792V20.8882H95.3002ZM97.8059 23.0991V31.5427H101.807C103.238 31.5427 104.333 31.1636 105.134 30.4267C105.913 29.6897 106.313 28.6369 106.313 27.3104C106.313 25.9838 105.913 24.952 105.134 24.2151C104.354 23.4781 103.238 23.1201 101.807 23.1201H97.8059V23.0991Z" fill="#44C7F4"/>
<path d="M114.314 41.1658C112.883 41.1658 111.724 40.7657 110.84 39.9656C109.956 39.1654 109.514 38.1337 109.514 36.8282C109.514 35.5859 109.977 34.5962 110.882 33.8592C111.788 33.1223 113.072 32.7012 114.757 32.6169L118.884 32.3853V31.164C118.884 30.2797 118.61 29.6059 118.041 29.1005C117.494 28.5952 116.715 28.3425 115.704 28.3425C114.778 28.3425 114.041 28.5531 113.472 28.9531C112.904 29.3532 112.525 29.9217 112.377 30.6376H110.04C110.124 29.3532 110.672 28.3004 111.703 27.4581C112.735 26.6369 114.083 26.2158 115.746 26.2158C117.431 26.2158 118.778 26.6369 119.768 27.5003C120.758 28.3425 121.263 29.5006 121.263 30.9324V40.9131H118.968V38.4285H118.905C118.462 39.2497 117.831 39.9235 116.989 40.4078C116.188 40.9131 115.283 41.1658 114.314 41.1658ZM114.862 39.1023C115.999 39.1023 116.946 38.7443 117.726 38.0495C118.505 37.3335 118.884 36.4702 118.884 35.4385V34.2593L115.03 34.4909C114.062 34.5541 113.304 34.7857 112.777 35.2069C112.251 35.6069 111.977 36.1544 111.977 36.8492C111.977 37.5441 112.251 38.0916 112.777 38.4916C113.283 38.8917 113.977 39.1023 114.862 39.1023Z" fill="#44C7F4"/>
<path d="M125.559 46.3027C125.137 46.3027 124.779 46.2817 124.527 46.2185V44.1971C124.758 44.2392 125.053 44.2603 125.474 44.2603C126.148 44.2603 126.696 44.0918 127.096 43.7339C127.496 43.3759 127.854 42.7863 128.127 41.9441L128.464 40.9334L123.137 26.4888H125.727L129.728 38.5119H129.77L133.771 26.4888H136.318L130.633 41.9441C130.022 43.6286 129.349 44.7867 128.633 45.3973C127.875 46.0079 126.864 46.3027 125.559 46.3027Z" fill="#44C7F4"/>
<path d="M139.245 61.5267H12.9916C6.02199 61.5267 0.336792 55.8415 0.336792 48.8719V12.9078C0.336792 5.93812 6.02199 0.25293 12.9916 0.25293H139.266C146.236 0.25293 151.921 5.93812 151.921 12.9078V48.8719C151.9 55.8626 146.236 61.5267 139.245 61.5267ZM12.9916 2.12694C7.03269 2.12694 2.2108 6.96988 2.2108 12.9078V48.8719C2.2108 54.8308 7.05374 59.6527 12.9916 59.6527H139.266C145.225 59.6527 150.047 54.8098 150.047 48.8719V12.9078C150.047 6.94882 145.204 2.12694 139.266 2.12694H12.9916Z" fill="white"/>
</g>
<defs>
<clipPath id="clip0_162_281">
<rect width="152.026" height="61.9055" fill="white"/>
</clipPath>
</defs>
</svg>
