<svg width="19" height="19" viewBox="0 0 19 19" fill="none" xmlns="http://www.w3.org/2000/svg">
<path fill-rule="evenodd" clip-rule="evenodd" d="M1.78125 5.54167C1.78125 3.46485 3.46485 1.78125 5.54167 1.78125H13.4583C15.5352 1.78125 17.2188 3.46485 17.2188 5.54167V13.4583C17.2188 15.5352 15.5352 17.2188 13.4583 17.2188H5.54167C3.46485 17.2188 1.78125 15.5352 1.78125 13.4583V5.54167ZM5.54167 2.96875C4.12068 2.96875 2.96875 4.12068 2.96875 5.54167V13.4583C2.96875 14.8793 4.12068 16.0312 5.54167 16.0312H13.4583C14.8793 16.0312 16.0312 14.8793 16.0312 13.4583V5.54167C16.0312 4.12068 14.8793 2.96875 13.4583 2.96875H5.54167Z" fill="white"/>
<path fill-rule="evenodd" clip-rule="evenodd" d="M5.73877 9.50016C5.73877 7.42333 7.42236 5.73975 9.49919 5.73975C11.576 5.73975 13.2596 7.42333 13.2596 9.50016C13.2596 11.577 11.576 13.2606 9.49919 13.2606C7.42236 13.2606 5.73877 11.577 5.73877 9.50016ZM9.49919 6.92725C8.0782 6.92725 6.92627 8.07917 6.92627 9.50016C6.92627 10.9212 8.0782 12.0731 9.49919 12.0731C10.9202 12.0731 12.0721 10.9212 12.0721 9.50016C12.0721 8.07917 10.9202 6.92725 9.49919 6.92725Z" fill="white"/>
<path d="M13.8547 5.93783C14.2919 5.93783 14.6463 5.5834 14.6463 5.14616C14.6463 4.70892 14.2919 4.35449 13.8547 4.35449C13.4174 4.35449 13.063 4.70892 13.063 5.14616C13.063 5.5834 13.4174 5.93783 13.8547 5.93783Z" fill="white"/>
</svg>
