<?xml version="1.0" encoding="utf-8"?>
<!-- Generator: Adobe Illustrator 25.3.1, SVG Export Plug-In . SVG Version: 6.00 Build 0)  -->
<svg version="1.1" id="Layer_1" xmlns="http://www.w3.org/2000/svg" xmlns:xlink="http://www.w3.org/1999/xlink" x="0px" y="0px"
	 viewBox="0 0 40 40" style="enable-background:new 0 0 40 40;" xml:space="preserve">
<g>
	<path d="M14.9,28.4c0,0.5,0,1,0,1.5c0,1.5-1.2,2.8-2.7,2.8c-1.5,0-2.8-1.2-2.8-2.8c0-0.5,0-1,0-1.6c-0.1,0-0.3,0-0.4,0
		c-1.5,0-3,0-4.5,0c-0.5,0-0.7-0.1-0.7-0.7c0-5.1,0-10.2,0-15.4c0-0.5,0.2-0.7,0.7-0.7c1.7,0,3.5,0,5.2,0c0.5,0,0.7,0.2,0.7,0.7
		c0,0.5,0,1,0,1.5c0,1.1,0.8,1.8,1.8,1.8c1,0,1.8-0.8,1.8-1.9c0-0.5,0-1,0-1.5c0-0.5,0.2-0.7,0.7-0.7c3.3,0,6.6,0,10,0
		c0.1,0,0.3,0,0.5,0c0-0.5,0-1,0-1.5c0-0.8,0.3-1.6,1-2.1c0.9-0.7,1.9-0.9,2.9-0.4c1.1,0.5,1.6,1.3,1.7,2.5c0,0.5,0,1,0,1.5
		c0.2,0,0.3,0,0.4,0c1.5,0,3,0,4.4,0c0.6,0,0.7,0.1,0.7,0.7c0,5.1,0,10.2,0,15.3c0,0.5-0.2,0.7-0.7,0.7c-1.7,0-3.5,0-5.2,0
		c-0.5,0-0.7-0.2-0.7-0.7c0-0.5,0-1,0-1.5c0-1.1-0.8-1.8-1.8-1.8c-1,0-1.7,0.8-1.7,1.8c0,0.5,0,1,0,1.5c0,0.6-0.2,0.7-0.7,0.7
		c-3.3,0-6.6,0-10,0C15.3,28.4,15.1,28.4,14.9,28.4z M35.2,12.7c-0.1,0-0.3,0-0.4,0c-1.5,0-3,0-4.5,0c-0.5,0-0.6-0.2-0.6-0.6
		c0-0.6,0-1.3,0-1.9c0-1-0.8-1.8-1.8-1.8c-1,0-1.8,0.8-1.8,1.8c0,0.6,0,1.2,0,1.8c0,0.5-0.2,0.7-0.7,0.7c-1.5,0-3,0-4.5,0
		c-0.1,0-0.2,0-0.4,0c0,0.2,0,0.3,0,0.5c0,1.4,0,2.9,0,4.3c0,0.6-0.1,0.8-0.8,0.8c-0.5,0-1,0-1.5,0c-1,0-1.7,0.8-1.7,1.7
		c0,1,0.8,1.8,1.7,1.8c0.5,0,1.1,0,1.6,0c0.6,0,0.7,0.2,0.7,0.7c0,1.5,0,3,0,4.4c0,0.1,0,0.3,0,0.4c1.5,0,3,0,4.5,0
		c0-0.5,0-0.9,0-1.4c0.1-1.1,0.6-1.9,1.5-2.4c0.9-0.5,1.9-0.4,2.8,0.1c0.9,0.6,1.3,1.4,1.3,2.4c0,0.4,0,0.8,0,1.2c1.5,0,3,0,4.5,0
		C35.2,22.4,35.2,17.6,35.2,12.7z M4.8,27.3c0.2,0,0.3,0,0.4,0c1.5,0,3,0,4.5,0c0.5,0,0.6,0.2,0.6,0.6c0,0.6,0,1.2,0,1.9
		c0,1,0.8,1.8,1.8,1.8c1,0,1.8-0.8,1.8-1.8c0-0.6,0-1.1,0-1.7c0-0.6,0.1-0.8,0.7-0.8c1.5,0,2.9,0,4.4,0c0.1,0,0.2,0,0.4,0
		c0-1.5,0-3,0-4.6c-0.6,0-1.1,0.1-1.6,0c-1.4-0.2-2.5-1.5-2.4-2.9c0.1-1.5,1.3-2.6,2.8-2.6c0.4,0,0.8,0,1.2,0c0-1.5,0-3,0-4.5
		c-1.5,0-3,0-4.5,0c0,0.5,0,0.9,0,1.4c-0.1,1.1-0.6,1.9-1.6,2.4c-1,0.5-2,0.3-2.9-0.4c-0.7-0.6-1-1.3-1-2.2c0-0.4,0-0.8,0-1.2
		c-1.5,0-3,0-4.5,0C4.8,17.6,4.8,22.4,4.8,27.3z"/>
</g>
</svg>
