<svg width="72" height="50" viewBox="0 0 72 50" fill="none" xmlns="http://www.w3.org/2000/svg">
<path d="M47.082 25.0787L71.027 40.2163V9.30176L47.082 25.0787Z" fill="#455A64"/>
<path d="M0 9.30176V40.2163L23.945 25.0787L0 9.30176Z" fill="#455A64"/>
<path d="M66.5878 0.299316H4.43908C2.22392 0.299316 0.465996 1.9507 0.133057 4.07707L35.5134 27.3873L70.8938 4.07707C70.5609 1.9507 68.803 0.299316 66.5878 0.299316Z" fill="#455A64"/>
<path d="M43.0158 27.7598L36.7344 31.8971C36.3615 32.1413 35.9398 32.2612 35.5136 32.2612C35.0874 32.2612 34.6657 32.1413 34.2928 31.8971L28.0114 27.7554L0.14209 45.3834C0.483908 47.492 2.23295 49.1301 4.43923 49.1301H66.588C68.7942 49.1301 70.5433 47.492 70.8851 45.3834L43.0158 27.7598Z" fill="#455A64"/>
</svg>
