<svg width="65" height="58" viewBox="0 0 65 58" fill="none" xmlns="http://www.w3.org/2000/svg">
<g clip-path="url(#clip0_9285_40)">
<path d="M42.687 3.04907C43.4957 3.04907 44.2712 3.37031 44.843 3.94212C45.4149 4.51393 45.7361 5.28947 45.7361 6.09813V30.4907C45.7361 31.2993 45.4149 32.0749 44.843 32.6467C44.2712 33.2185 43.4957 33.5397 42.687 33.5397H13.4587C11.8415 33.5401 10.2907 34.1828 9.14731 35.3265L3.04918 41.4246V6.09813C3.04918 5.28947 3.37041 4.51393 3.94223 3.94212C4.51404 3.37031 5.28958 3.04907 6.09824 3.04907H42.687ZM6.09824 0C4.48092 0 2.92983 0.64248 1.78621 1.7861C0.642593 2.92972 0.000110626 4.48081 0.000110626 6.09813V45.1048C0.000175476 45.4065 0.0897293 45.7013 0.257442 45.9521C0.425156 46.2028 0.663486 46.3982 0.942268 46.5134C1.22105 46.6286 1.52776 46.6586 1.82356 46.5994C2.11937 46.5403 2.39098 46.3947 2.60401 46.1811L11.303 37.4822C11.8747 36.9103 12.6501 36.589 13.4587 36.5888H42.687C44.3044 36.5888 45.8554 35.9463 46.9991 34.8027C48.1427 33.6591 48.7852 32.108 48.7852 30.4907V6.09813C48.7852 4.48081 48.1427 2.92972 46.9991 1.7861C45.8554 0.64248 44.3044 0 42.687 0L6.09824 0Z" fill="#0F6BF2"/>
</g>
<g clip-path="url(#clip1_9285_40)">
<rect width="48.785" height="48.785" transform="translate(15.4487 9.21484)" fill="white"/>
<path d="M21.5469 12.2639C20.7382 12.2639 19.9627 12.5851 19.3908 13.157C18.819 13.7288 18.4978 14.5043 18.4978 15.313V39.7055C18.4978 40.5142 18.819 41.2897 19.3908 41.8615C19.9627 42.4333 20.7382 42.7546 21.5469 42.7546H50.7752C52.3924 42.7549 53.9432 43.3976 55.0866 44.5413L61.1847 50.6394V15.313C61.1847 14.5043 60.8635 13.7288 60.2917 13.157C59.7198 12.5851 58.9443 12.2639 58.1356 12.2639H21.5469ZM58.1356 9.21484C59.753 9.21484 61.3041 9.85732 62.4477 11.0009C63.5913 12.1446 64.2338 13.6956 64.2338 15.313V54.3197C64.2337 54.6213 64.1442 54.9162 63.9764 55.1669C63.8087 55.4177 63.5704 55.613 63.2916 55.7283C63.0128 55.8435 62.7061 55.8734 62.4103 55.8143C62.1145 55.7551 61.8429 55.6096 61.6299 55.396L52.9309 46.697C52.3592 46.1252 51.5838 45.8038 50.7752 45.8036H21.5469C19.9295 45.8036 18.3785 45.1611 17.2348 44.0175C16.0912 42.8739 15.4487 41.3228 15.4487 39.7055V15.313C15.4487 13.6956 16.0912 12.1446 17.2348 11.0009C18.3785 9.85732 19.9295 9.21484 21.5469 9.21484H58.1356Z" fill="#0F6BF2"/>
</g>
<defs>
<clipPath id="clip0_9285_40">
<rect width="48.785" height="48.785" fill="white" transform="matrix(-1 0 0 1 48.7852 0)"/>
</clipPath>
<clipPath id="clip1_9285_40">
<rect width="48.785" height="48.785" fill="white" transform="translate(15.4487 9.21484)"/>
</clipPath>
</defs>
</svg>
