<svg width="193" height="135" viewBox="0 0 193 135" fill="none" xmlns="http://www.w3.org/2000/svg">
<path d="M53.0938 33.75C54.2126 33.75 55.2857 33.3055 56.0769 32.5144C56.868 31.7232 57.3125 30.6501 57.3125 29.5312C57.3125 28.4124 56.868 27.3393 56.0769 26.5481C55.2857 25.757 54.2126 25.3125 53.0938 25.3125C51.9749 25.3125 50.9018 25.757 50.1106 26.5481C49.3195 27.3393 48.875 28.4124 48.875 29.5312C48.875 30.6501 49.3195 31.7232 50.1106 32.5144C50.9018 33.3055 51.9749 33.75 53.0938 33.75ZM69.9688 29.5312C69.9688 30.6501 69.5243 31.7232 68.7331 32.5144C67.9419 33.3055 66.8689 33.75 65.75 33.75C64.6311 33.75 63.5581 33.3055 62.7669 32.5144C61.9757 31.7232 61.5312 30.6501 61.5312 29.5312C61.5312 28.4124 61.9757 27.3393 62.7669 26.5481C63.5581 25.757 64.6311 25.3125 65.75 25.3125C66.8689 25.3125 67.9419 25.757 68.7331 26.5481C69.5243 27.3393 69.9688 28.4124 69.9688 29.5312ZM78.4062 33.75C79.5251 33.75 80.5982 33.3055 81.3894 32.5144C82.1805 31.7232 82.625 30.6501 82.625 29.5312C82.625 28.4124 82.1805 27.3393 81.3894 26.5481C80.5982 25.757 79.5251 25.3125 78.4062 25.3125C77.2874 25.3125 76.2143 25.757 75.4231 26.5481C74.632 27.3393 74.1875 28.4124 74.1875 29.5312C74.1875 30.6501 74.632 31.7232 75.4231 32.5144C76.2143 33.3055 77.2874 33.75 78.4062 33.75Z" fill="white"/>
<path d="M48.875 8.4375C44.3995 8.4375 40.1072 10.2154 36.9426 13.3801C33.7779 16.5447 32 20.837 32 25.3125V109.688C32 114.163 33.7779 118.455 36.9426 121.62C40.1072 124.785 44.3995 126.562 48.875 126.562H150.125C154.601 126.562 158.893 124.785 162.057 121.62C165.222 118.455 167 114.163 167 109.688V25.3125C167 20.837 165.222 16.5447 162.057 13.3801C158.893 10.2154 154.601 8.4375 150.125 8.4375H48.875ZM158.562 25.3125V42.1875H40.4375V25.3125C40.4375 23.0747 41.3264 20.9286 42.9088 19.3463C44.4911 17.7639 46.6372 16.875 48.875 16.875H150.125C152.363 16.875 154.509 17.7639 156.091 19.3463C157.674 20.9286 158.562 23.0747 158.562 25.3125ZM48.875 118.125C46.6372 118.125 44.4911 117.236 42.9088 115.654C41.3264 114.071 40.4375 111.925 40.4375 109.688V50.625H158.562V109.688C158.562 111.925 157.674 114.071 156.091 115.654C154.509 117.236 152.363 118.125 150.125 118.125H48.875Z" fill="white"/>
<path d="M73.1945 89V69.792H77.0305L84.7585 80.152C84.8705 80.2827 85.0105 80.4693 85.1785 80.712C85.3465 80.936 85.5051 81.16 85.6545 81.384C85.8038 81.608 85.9065 81.7853 85.9625 81.916H86.1025C86.1025 81.5987 86.1025 81.2907 86.1025 80.992C86.1025 80.6747 86.1025 80.3947 86.1025 80.152V69.792H90.0505V89H86.2145L78.3185 78.388C78.1318 78.1267 77.9358 77.8373 77.7305 77.52C77.5251 77.2027 77.3758 76.96 77.2825 76.792H77.1425C77.1425 77.072 77.1425 77.352 77.1425 77.632C77.1425 77.8933 77.1425 78.1453 77.1425 78.388V89H73.1945ZM94.5838 89V69.792H108.752V73.208H98.7558V77.968H107.688V81.356H98.7558V89H94.5838ZM117.014 89V73.292H110.854V69.792H127.402V73.292H121.214V89H117.014Z" fill="white"/>
</svg>
