<svg width="70" height="70" viewBox="0 0 70 70" fill="none" xmlns="http://www.w3.org/2000/svg">
<path d="M53.8674 36.2852L39.594 31.0352C39.4481 30.9852 39.3157 30.9025 39.2067 30.7935C39.0977 30.6845 39.015 30.5521 38.965 30.4063L33.715 16.1328C33.4873 15.4956 33.0682 14.9445 32.5151 14.5548C31.9619 14.165 31.3018 13.9559 30.6252 13.9559C29.9486 13.9559 29.2885 14.165 28.7353 14.5548C28.1822 14.9445 27.7631 15.4956 27.5354 16.1328L22.2854 30.4063C22.2354 30.5521 22.1527 30.6845 22.0437 30.7935C21.9347 30.9025 21.8023 30.9852 21.6564 31.0352L7.38301 36.2852C6.74585 36.5129 6.19466 36.932 5.80495 37.4851C5.41524 38.0383 5.20605 38.6984 5.20605 39.375C5.20605 40.0516 5.41524 40.7117 5.80495 41.2649C6.19466 41.818 6.74585 42.2371 7.38301 42.4648L21.6564 47.7148C21.8023 47.7648 21.9347 47.8475 22.0437 47.9565C22.1527 48.0655 22.2354 48.1979 22.2854 48.3438L27.5354 62.6172C27.7631 63.2544 28.1822 63.8055 28.7353 64.1953C29.2885 64.585 29.9486 64.7942 30.6252 64.7942C31.3018 64.7942 31.9619 64.585 32.5151 64.1953C33.0682 63.8055 33.4873 63.2544 33.715 62.6172L38.965 48.3438C39.015 48.1979 39.0977 48.0655 39.2067 47.9565C39.3157 47.8475 39.4481 47.7648 39.594 47.7148L53.8674 42.4648C54.5046 42.2371 55.0557 41.818 55.4455 41.2649C55.8352 40.7117 56.0443 40.0516 56.0443 39.375C56.0443 38.6984 55.8352 38.0383 55.4455 37.4851C55.0557 36.932 54.5046 36.5129 53.8674 36.2852ZM53.1018 40.4141L38.8557 45.6641C38.4101 45.8266 38.0055 46.0846 37.6702 46.42C37.3348 46.7553 37.0768 47.1599 36.9143 47.6055L31.6643 61.8516C31.5923 62.0704 31.4532 62.2609 31.2666 62.396C31.08 62.5311 30.8555 62.6038 30.6252 62.6038C30.3949 62.6038 30.1704 62.5311 29.9838 62.396C29.7972 62.2609 29.6581 62.0704 29.5861 61.8516L24.3361 47.6055C24.1736 47.1599 23.9156 46.7553 23.5802 46.42C23.2449 46.0846 22.8403 45.8266 22.3947 45.6641L8.14863 40.4141C7.92981 40.3421 7.73928 40.203 7.6042 40.0164C7.46913 39.8298 7.39641 39.6053 7.39641 39.375C7.39641 39.1447 7.46913 38.9202 7.6042 38.7336C7.73928 38.547 7.92981 38.4079 8.14863 38.3359L22.3947 33.0859C22.8403 32.9234 23.2449 32.6654 23.5802 32.33C23.9156 31.9947 24.1736 31.5901 24.3361 31.1445L29.5861 16.8984C29.6581 16.6796 29.7972 16.4891 29.9838 16.354C30.1704 16.2189 30.3949 16.1462 30.6252 16.1462C30.8555 16.1462 31.08 16.2189 31.2666 16.354C31.4532 16.4891 31.5923 16.6796 31.6643 16.8984L36.9143 31.1445C37.0768 31.5901 37.3348 31.9947 37.6702 32.33C38.0055 32.6654 38.4101 32.9234 38.8557 33.0859L53.1018 38.3359C53.3206 38.4079 53.5111 38.547 53.6462 38.7336C53.7813 38.9202 53.854 39.1447 53.854 39.375C53.854 39.6053 53.7813 39.8298 53.6462 40.0164C53.5111 40.203 53.3206 40.3421 53.1018 40.4141ZM40.469 10.9375C40.469 10.6474 40.5842 10.3692 40.7893 10.1641C40.9944 9.95898 41.2726 9.84375 41.5627 9.84375H47.0315V4.375C47.0315 4.08492 47.1467 3.80672 47.3518 3.6016C47.5569 3.39648 47.8351 3.28125 48.1252 3.28125C48.4153 3.28125 48.6935 3.39648 48.8986 3.6016C49.1037 3.80672 49.219 4.08492 49.219 4.375V9.84375H54.6877C54.9778 9.84375 55.256 9.95898 55.4611 10.1641C55.6662 10.3692 55.7815 10.6474 55.7815 10.9375C55.7815 11.2276 55.6662 11.5058 55.4611 11.7109C55.256 11.916 54.9778 12.0313 54.6877 12.0313H49.219V17.5C49.219 17.7901 49.1037 18.0683 48.8986 18.2734C48.6935 18.4785 48.4153 18.5938 48.1252 18.5938C47.8351 18.5938 47.5569 18.4785 47.3518 18.2734C47.1467 18.0683 47.0315 17.7901 47.0315 17.5V12.0313H41.5627C41.2726 12.0313 40.9944 11.916 40.7893 11.7109C40.5842 11.5058 40.469 11.2276 40.469 10.9375ZM66.719 24.0625C66.719 24.3526 66.6037 24.6308 66.3986 24.8359C66.1935 25.041 65.9153 25.1563 65.6252 25.1563H62.344V28.4375C62.344 28.7276 62.2287 29.0058 62.0236 29.2109C61.8185 29.416 61.5403 29.5313 61.2502 29.5313C60.9601 29.5313 60.6819 29.416 60.4768 29.2109C60.2717 29.0058 60.1565 28.7276 60.1565 28.4375V25.1563H56.8752C56.5851 25.1563 56.3069 25.041 56.1018 24.8359C55.8967 24.6308 55.7815 24.3526 55.7815 24.0625C55.7815 23.7724 55.8967 23.4942 56.1018 23.2891C56.3069 23.084 56.5851 22.9688 56.8752 22.9688H60.1565V19.6875C60.1565 19.3974 60.2717 19.1192 60.4768 18.9141C60.6819 18.709 60.9601 18.5938 61.2502 18.5938C61.5403 18.5938 61.8185 18.709 62.0236 18.9141C62.2287 19.1192 62.344 19.3974 62.344 19.6875V22.9688H65.6252C65.9153 22.9688 66.1935 23.084 66.3986 23.2891C66.6037 23.4942 66.719 23.7724 66.719 24.0625Z" fill="#0F6BF2"/>
</svg>
