<?xml version="1.0" encoding="utf-8"?>
<!-- Generator: Adobe Illustrator 25.3.1, SVG Export Plug-In . SVG Version: 6.00 Build 0)  -->
<svg version="1.1" id="Layer_1" xmlns="http://www.w3.org/2000/svg" xmlns:xlink="http://www.w3.org/1999/xlink" x="0px" y="0px"
	 viewBox="0 0 50 50" style="enable-background:new 0 0 50 50;" xml:space="preserve">
<style type="text/css">
	.st0{fill:#232323;}
</style>
<g>
	<path class="st0" d="M25.1,46.7c-4.7,0-9.4,0-14.1,0c-1,0-2-0.1-3.1-0.1c-0.4,0-0.7-0.2-1-0.4c-0.6-0.6-0.9-1.2-0.9-2.1
		c0-0.2,0-0.4,0-0.7c0-1.1,0.5-1.9,1.5-2.3c0.9-0.4,1.8-0.8,2.7-1.2c2.2-1,4.3-2.1,6.3-3.4c0.8-0.5,1.5-1.1,2.1-1.9
		c0.2-0.3,0.3-0.5,0.3-0.9c0.1-0.7-0.1-1.3-0.6-1.9c-1-1-1.8-2.3-2.3-3.6c0-0.1-0.1-0.2-0.2-0.2c-0.3,0-0.6,0-0.9-0.1
		c-1.2-0.1-2-0.7-2.6-1.7c-0.2-0.4-0.3-0.7-0.3-1.2c0-2.1,0-4.3,0-6.5c0-0.2,0.1-0.5,0.1-0.7c0.3-0.8,0.9-1.4,1.6-1.8
		c0.2-0.1,0.2-0.2,0.2-0.4c0-1.2,0-2.5,0.2-3.7C15.1,9,16.7,6.7,19.3,5c1.9-1.2,3.9-1.9,6.2-1.7c3.8,0.2,6.7,2.1,8.7,5.3
		c1.1,1.8,1.6,3.8,1.6,5.9c0,0.5,0,1,0,1.5c0,0.1,0.1,0.2,0.2,0.3c0.7,0.3,1.2,0.9,1.6,1.5c0.2,0.4,0.3,0.8,0.3,1.2
		c0,2.1,0,4.1,0,6.2c0,0.7-0.2,1.3-0.7,1.8c-0.3,0.3-0.3,0.7-0.3,1c-0.1,1.3-0.5,2.5-1.4,3.4c-0.8,0.8-1.8,1.3-2.9,1.7
		c-0.4,0.1-0.9,0.3-1.4,0.4c-0.1,0-0.2,0.1-0.2,0.2c0,0.5,0.1,0.8,0.4,1.2c0.6,0.7,1.3,1.2,2,1.7c2.1,1.5,4.4,2.6,6.8,3.6
		c0.6,0.3,1.3,0.5,1.9,0.8c0.8,0.3,1.4,0.8,1.7,1.6c0.1,0.2,0.2,0.4,0.2,0.7c0,0.5,0,1.1-0.1,1.6c-0.1,0.7-0.6,1.2-1.2,1.6
		c-0.3,0.2-0.7,0.3-1.2,0.3C36,46.8,30.6,46.8,25.1,46.7C25.1,46.7,25.1,46.7,25.1,46.7z M29.1,33.6c-0.4,0-0.8,0.1-1.2,0.1
		c-0.2,0-0.4,0.1-0.5,0.3c-0.3,0.4-0.7,0.7-1.1,1c-0.4,0.2-0.9,0.3-1.3,0.2c-0.4-0.2-0.8-0.3-1.1-0.6c-0.8-0.7-1.2-1.8-0.5-2.9
		c0.3-0.4,0.6-0.7,1-1c0.7-0.4,1.4-0.4,2,0c0.4,0.3,0.7,0.6,1.1,1c0.1,0.1,0.2,0.1,0.3,0.1c0.4,0,0.8,0,1.2,0c0.1,0,0.2,0,0.2-0.1
		c1.2-1.2,2.3-2.5,2.9-4.1c0.1-0.1,0.1-0.3,0.1-0.5c0-3.2,0-6.3,0-9.5c0-0.8,0-1.6,0-2.4c-0.1-2.3-1.4-4.2-3.8-4.9
		c-2.2-0.6-4.5-0.6-6.7,0c-1.6,0.4-2.8,1.5-3.5,3.1c-0.4,0.9-0.5,1.8-0.5,2.8c0,3.3,0,6.5,0,9.8c0,0.4,0,0.9,0.1,1.3
		c0.1,0.8,0.6,1.5,1,2.2c0.6,0.8,1.2,1.5,1.8,2.2c0.1,0.1,0.1,0.2,0.1,0.3c0,0.7,0,1.3,0,2c0,0.5-0.1,1-0.4,1.4
		c-0.5,0.8-1.2,1.4-2,2c-2.1,1.6-4.5,2.9-6.9,4.1c-1.1,0.5-2.2,1-3.3,1.4C8.1,42.8,8,42.9,8,43.1c0,0.5,0,0.9-0.1,1.4
		c0,0.2,0.1,0.3,0.4,0.3c0.3,0,0.6,0,0.9,0c2.4,0,4.8,0,7.1,0c7.5,0,15.1,0,22.6,0c0.9,0,1.9,0,2.8-0.1c0.2,0,0.4-0.1,0.4-0.3
		c0-0.5,0-0.9-0.1-1.4c0-0.1-0.1-0.2-0.2-0.3c-0.2-0.1-0.4-0.2-0.6-0.3c-2.5-1-4.9-2.1-7.1-3.5c-1.3-0.8-2.6-1.7-3.7-2.8
		C29.6,35.5,29,34.7,29.1,33.6z M16.2,13.8c0.1-0.2,0.1-0.4,0.2-0.5c0.8-2.3,2.4-3.9,4.8-4.7c0.9-0.3,1.9-0.4,2.9-0.5
		c1.4-0.1,2.7-0.1,4,0.3c2.6,0.6,4.4,2,5.4,4.5c0.1,0.2,0.2,0.5,0.3,0.8c0,0.1,0,0.1,0.1,0.2c0.1-1.3-0.3-3-1-4.2
		c-1.8-3.3-5-5-8.9-4.6c-3.1,0.3-5.4,2-6.9,4.8C16.4,11.1,16.2,12.4,16.2,13.8z M15.9,26.2c0-0.1,0-0.2,0-0.3c0-2.5,0-5.1,0-7.6
		c0-0.5,0-0.5-0.5-0.5c-1,0.1-1.3,0.3-1.3,1.3c0,2.1,0,4.2,0.1,6.3c0,0.4,0.2,0.7,0.6,0.7C15.1,26.2,15.5,26.2,15.9,26.2z
		 M34.2,17.7c0,2.9,0,5.7,0,8.6c0.4-0.1,0.8-0.1,1.2-0.3c0.4-0.1,0.6-0.4,0.6-0.8c0-0.2,0-0.3,0-0.5c0-1.9,0-3.8,0-5.6
		c0-0.3,0-0.6-0.1-0.8c0-0.2-0.2-0.4-0.4-0.5C35.1,17.8,34.7,17.8,34.2,17.7z M32.2,31.3c0.2-0.1,0.4-0.2,0.6-0.3
		c1.1-0.5,1.8-1.4,2.1-2.6c0-0.2,0-0.3-0.2-0.3c-0.1,0-0.3,0-0.4,0c-0.2,0-0.3,0.1-0.4,0.2c-0.4,1-1,1.9-1.6,2.8
		C32.3,31.1,32.2,31.2,32.2,31.3z M25.9,32.8c0-0.5-0.1-0.6-0.5-0.6c-0.4,0-0.6,0.1-0.6,0.5c0,0.4,0.2,0.6,0.6,0.6
		C25.7,33.4,25.9,33.2,25.9,32.8z"/>
</g>
</svg>
