<svg width="18" height="17" viewBox="0 0 18 17" fill="none" xmlns="http://www.w3.org/2000/svg">
<path fill-rule="evenodd" clip-rule="evenodd" d="M14.411 3.31891C14.0724 2.85453 13.6656 2.49407 13.1856 2.25879C12.6439 1.9933 12.042 1.90343 11.3981 1.96811C10.3587 2.07253 9.6327 2.65213 9.21799 3.50296C8.86377 4.22969 8.74022 5.14003 8.78253 6.11445C7.81597 6.48881 6.96311 6.28607 6.20723 5.80352C5.34249 5.25147 4.6234 4.33758 4.11758 3.51311C4.00621 3.33157 3.79717 3.23409 3.58651 3.26546C3.37585 3.29683 3.20429 3.45099 3.15064 3.6571C2.79667 5.01707 2.41746 6.77392 3.16898 8.72615C3.59938 9.84422 4.50421 10.7739 5.80421 11.5408C4.51214 12.1203 3.48813 12.2935 2.70378 12.144C2.44733 12.0951 2.19338 12.2398 2.10468 12.4853C2.01598 12.7309 2.11881 13.0045 2.34728 13.1308C2.36342 13.1397 2.38206 13.1501 2.4031 13.1618C2.82736 13.3979 4.23127 14.1793 5.97304 14.6591C7.78737 15.159 10.0842 15.3636 12.0304 14.1476C15.6393 11.8927 15.6151 8.07129 15.6036 6.25165C15.6033 6.20316 15.603 6.15608 15.6028 6.11049C15.653 6.02333 15.7152 5.93301 15.7955 5.81847C15.7993 5.81304 15.8031 5.80757 15.807 5.80204C15.9107 5.6542 16.0386 5.47189 16.1562 5.24925C16.4102 4.76815 16.5939 4.14437 16.5939 3.16766C16.5939 2.95661 16.469 2.76558 16.2756 2.68097C16.0823 2.59636 15.8572 2.63422 15.7022 2.77742C15.2043 3.2373 14.7852 3.37262 14.411 3.31891ZM12.718 3.21286C12.3795 3.04694 11.981 2.9774 11.5043 3.02529C10.8628 3.08974 10.4408 3.41913 10.1731 3.96848C9.89036 4.5485 9.77933 5.38584 9.86564 6.40337C9.88395 6.61923 9.76935 6.82458 9.57603 6.92235C8.0813 7.67823 6.72476 7.39446 5.63551 6.69908C4.9629 6.26969 4.38687 5.68257 3.91731 5.08539C3.73922 6.09704 3.71335 7.18275 4.16055 8.34445C4.5496 9.3551 5.51282 10.2807 7.19606 11.0741C7.37723 11.1594 7.49498 11.3395 7.50061 11.5397C7.50624 11.7399 7.39879 11.9262 7.22271 12.0217C6.3058 12.5186 5.44434 12.8766 4.6452 13.0756C5.12283 13.2744 5.66891 13.4733 6.25525 13.6348C7.96332 14.1054 9.89719 14.2276 11.4674 13.2466C14.5597 11.3145 14.5475 8.06518 14.5406 6.22293C14.5403 6.13913 14.54 6.05824 14.54 5.98052C14.54 5.90133 14.5577 5.82314 14.5918 5.75167C14.6922 5.54126 14.8179 5.36206 14.9222 5.21318L14.9261 5.20772C15.0359 5.05103 15.1306 4.91593 15.2166 4.75315C15.2906 4.61295 15.3627 4.44311 15.4192 4.2209C14.9473 4.41324 14.4509 4.45267 13.9396 4.29994C13.8197 4.26409 13.7162 4.187 13.6475 4.08228C13.3699 3.659 13.0576 3.3793 12.718 3.21286Z" fill="white"/>
</svg>
