<?xml version="1.0" encoding="utf-8"?>
<!-- Generator: Adobe Illustrator 25.3.1, SVG Export Plug-In . SVG Version: 6.00 Build 0)  -->
<svg version="1.1" id="Layer_1" xmlns="http://www.w3.org/2000/svg" xmlns:xlink="http://www.w3.org/1999/xlink" x="0px" y="0px"
	 viewBox="0 0 40 40" style="enable-background:new 0 0 40 40;" xml:space="preserve">
<g>
	<path d="M20,13.7c3.7,0,7.5,0,11.2,0c1.3,0,2,0.7,2,2c0,2.9,0,5.8,0,8.7c0,1.2-0.7,2-2,2c-5.2,0-10.4,0-15.6,0
		c-0.5,0-0.8-0.2-0.7-0.6c0-0.3,0.2-0.5,0.5-0.5c0.1,0,0.3,0,0.4,0c5.1,0,10.2,0,15.4,0c0.7,0,0.9-0.2,0.9-0.9c0-2.9,0-5.7,0-8.6
		c0-0.7-0.2-0.9-0.9-0.9c-7.4,0-14.9,0-22.3,0c-0.7,0-0.9,0.2-0.9,0.9c0,2.9,0,5.7,0,8.6c0,0.7,0.2,0.9,0.9,0.9c0.3,0,0.6,0,0.9,0
		c0.4,0,0.6,0.2,0.6,0.6c0,0.3-0.2,0.6-0.6,0.6c-0.4,0-0.8,0-1.2,0c-0.9,0-1.7-0.8-1.7-1.7c0-3.1,0-6.1,0-9.2c0-1,0.8-1.7,1.9-1.7
		c3.2,0,6.5,0,9.7,0C19,13.7,19.5,13.7,20,13.7z"/>
	<path d="M20,24.1c-3,0-5.9,0-8.9,0c-0.6,0-0.7-0.1-0.8-0.7c-0.1-0.3-0.2-0.4-0.5-0.5c-0.5-0.1-0.6-0.2-0.6-0.7c0-1.4,0-2.8,0-4.3
		c0-0.5,0.1-0.7,0.6-0.8c0.3-0.1,0.5-0.2,0.5-0.6c0.1-0.4,0.2-0.6,0.6-0.6c4.9,0,9.8,0,14.8,0c0.4,0,0.6,0.2,0.6,0.6
		c0,0.4-0.2,0.6-0.7,0.6c-4.6,0-9.3,0-13.9,0c-0.3,0-0.5,0.1-0.6,0.3c-0.1,0.2-0.4,0.4-0.6,0.6c-0.2,0.1-0.2,0.2-0.2,0.4
		c0,1,0,2,0,3c0,0.2,0.1,0.3,0.2,0.4c0.3,0.2,0.5,0.5,0.7,0.7c0.1,0.1,0.2,0.2,0.4,0.2c5.6,0,11.3,0,16.9,0c0.1,0,0.3-0.1,0.4-0.2
		c0.2-0.2,0.4-0.5,0.7-0.7c0.2-0.1,0.2-0.2,0.2-0.4c0-1,0-2,0-3c0-0.2-0.1-0.3-0.2-0.4c-0.3-0.2-0.5-0.5-0.7-0.7
		c-0.1-0.1-0.2-0.2-0.4-0.2c-0.1,0-0.3,0-0.4,0c-0.4,0-0.6-0.2-0.6-0.6c0-0.3,0.2-0.6,0.6-0.6c0.4,0,0.8,0,1.2,0
		c0.3,0,0.5,0.2,0.6,0.5c0,0.4,0.2,0.6,0.6,0.6c0.4,0,0.5,0.2,0.5,0.6c0,1.5,0,3,0,4.5c0,0.4-0.2,0.6-0.5,0.6
		c-0.4,0-0.6,0.2-0.6,0.6c0,0.4-0.2,0.5-0.7,0.5C26,24.1,23,24.1,20,24.1z"/>
	<path d="M18.7,36.6c-1.5-0.1-2.9-0.4-4.3-0.9c-6-2.4-9.6-6.7-10.8-13C3,19.3,3.6,16.1,5,13.1c0,0,0-0.1,0.1-0.1
		c0.2-0.3,0.5-0.5,0.8-0.3c0.3,0.1,0.4,0.4,0.2,0.8c-0.3,0.8-0.6,1.5-0.9,2.3c-1.8,6,0.3,12.6,5.3,16.5c2.8,2.2,5.9,3.3,9.4,3.3
		c0.3,0,0.6,0,0.7,0.4c0.1,0.3,0,0.5-0.3,0.8c-0.3,0.3-0.6,0.6-0.9,0.9c-0.2,0.1-0.4,0.2-0.6,0.2c-0.4,0-0.6-0.4-0.4-0.7
		C18.5,36.9,18.6,36.8,18.7,36.6z"/>
	<path d="M21.4,3.5c3.4,0.3,6.5,1.5,9.1,3.7c3.6,2.9,5.6,6.7,6.1,11.4c0,0.1,0,0.2,0,0.3c0,0.4-0.2,0.7-0.5,0.7
		c-0.3,0-0.6-0.2-0.6-0.6c-0.1-0.8-0.2-1.7-0.4-2.5c-1.4-5.3-4.7-8.9-9.7-10.8c-1.6-0.6-3.4-0.9-5.1-0.9c-0.2,0-0.4,0-0.5-0.1
		c-0.3-0.2-0.3-0.6,0-0.8c0.3-0.4,0.7-0.7,1.1-1.1c0.3-0.3,0.6-0.3,0.9-0.1c0.2,0.2,0.2,0.5,0,0.9C21.5,3.3,21.5,3.4,21.4,3.5z"/>
	<path d="M36.6,21.4c-0.4,4.1-2,7.6-4.9,10.5c-0.3,0.3-0.6,0.3-0.9,0.1c-0.2-0.2-0.2-0.6,0.1-0.9c1.8-1.8,3.1-3.9,3.8-6.3
		c0.3-1.1,0.5-2.2,0.7-3.4c0,0,0,0,0-0.1c0-0.4,0.3-0.7,0.7-0.7C36.5,20.6,36.6,20.9,36.6,21.4z"/>
	<path d="M20,21.8c-1,0-1.7-0.7-1.7-1.7c0-0.9,0.7-1.7,1.6-1.7c0.5,0,0.8,0.4,0.6,0.8c-0.1,0.2-0.3,0.3-0.5,0.3
		c-0.4,0.1-0.6,0.3-0.6,0.6c0,0.3,0.2,0.5,0.5,0.5c0.3,0,0.5-0.2,0.6-0.6c0.1-0.4,0.3-0.6,0.6-0.6c0.3,0,0.5,0.3,0.5,0.7
		C21.7,21.1,21,21.8,20,21.8z"/>
	<path d="M9.2,8.8C9.1,9,9,9.1,9,9.2c-0.5,0.6-1,1.2-1.5,1.9c-0.3,0.3-0.6,0.4-0.9,0.2c-0.3-0.2-0.3-0.5-0.1-0.9
		c0.5-0.7,1.1-1.3,1.6-2c0.2-0.2,0.4-0.3,0.6-0.2C9,8.4,9.1,8.6,9.2,8.8z"/>
	<path d="M12.5,26.3c-0.2,0-0.4,0-0.5,0c-0.3,0-0.6-0.2-0.5-0.6c0-0.3,0.2-0.5,0.5-0.6c0.4,0,0.7,0,1.1,0c0.3,0,0.5,0.2,0.5,0.6
		c0,0.3-0.2,0.5-0.5,0.6C12.9,26.4,12.7,26.3,12.5,26.3C12.5,26.3,12.5,26.3,12.5,26.3z"/>
	<path d="M26.3,20c0,0.3-0.3,0.6-0.6,0.6c-0.3,0-0.6-0.3-0.6-0.6c0-0.3,0.3-0.6,0.6-0.6C26.1,19.5,26.3,19.7,26.3,20z"/>
	<path d="M14.4,19.5c0.3,0,0.6,0.3,0.6,0.6c0,0.3-0.3,0.6-0.6,0.6c-0.3,0-0.6-0.3-0.5-0.6C13.8,19.7,14.1,19.5,14.4,19.5z"/>
</g>
</svg>
