<?xml version="1.0" encoding="utf-8"?>
<!-- Generator: Adobe Illustrator 25.3.1, SVG Export Plug-In . SVG Version: 6.00 Build 0)  -->
<svg version="1.1" id="Layer_1" xmlns="http://www.w3.org/2000/svg" xmlns:xlink="http://www.w3.org/1999/xlink" x="0px" y="0px"
	 viewBox="0 0 50 50" style="enable-background:new 0 0 50 50;" xml:space="preserve">
<style type="text/css">
	.st0{fill:#232323;}
</style>
<g>
	<path class="st0" d="M45,17.3c0,0.4,0,0.8,0,1.3c0,0,0,0.1-0.1,0.1c-0.3,1.9-1.4,3.2-3.1,4.1c-3.8,2-7.6,4.1-11.4,6.1
		c-3.6,1.9-7.2,2-10.7,0.2c-4.1-2.1-8.1-4.3-12.2-6.5c-1.3-0.7-2.1-1.8-2.5-3.2C5.1,19,5,18.8,5,18.5c0-0.4,0-0.8,0-1.3
		c0,0,0.1-0.1,0.1-0.1c0.3-1.9,1.3-3.2,3-4c3.9-2,7.8-4.1,11.7-6.2c3.4-1.8,6.9-1.8,10.3-0.1c1.4,0.7,2.8,1.4,4.2,2.2
		c2.7,1.4,5.3,2.8,7.9,4.2c1.4,0.7,2.3,1.8,2.7,3.3C44.9,16.7,45,17,45,17.3z M24.9,27.1c1.4,0,2.7-0.3,3.9-1
		c4-2.1,7.9-4.2,11.9-6.3c0.8-0.4,1.2-1.1,1.2-2c0-0.9-0.5-1.5-1.3-2c-4-2.1-7.9-4.2-11.9-6.3c-2.5-1.3-5-1.3-7.5,0
		c-3.9,2.1-7.9,4.1-11.8,6.2c-0.8,0.4-1.3,1-1.3,2c0,0.9,0.5,1.6,1.3,2c3.9,2.1,7.8,4.2,11.7,6.3C22.3,26.8,23.6,27.2,24.9,27.1z"/>
	<path class="st0" d="M45,27.6c-0.2,0.6-0.7,1-1.2,1.3c-4.4,2.3-8.8,4.7-13.2,7.1c-3.7,2-7.4,2-11.1,0c-4.4-2.3-8.8-4.7-13.3-7
		c-0.6-0.3-1-0.6-1.3-1.3c0-0.2,0-0.5,0-0.7c0.2-0.6,0.6-1,1.2-1.2c0.5-0.1,0.9,0,1.3,0.2c4.5,2.4,9,4.7,13.4,7.1
		c2.8,1.5,5.5,1.5,8.2,0c4.4-2.4,8.8-4.7,13.2-7.1c1.3-0.7,2-0.5,2.7,0.8C45,27.1,45,27.3,45,27.6z"/>
	<path class="st0" d="M5,34c0.2-0.6,0.6-1,1.2-1.2c0.5-0.1,0.9,0,1.3,0.2c4.5,2.4,9,4.7,13.4,7.1c2.8,1.5,5.5,1.5,8.2,0
		c4.4-2.4,8.8-4.7,13.2-7.1c1.3-0.7,2-0.5,2.7,0.8c0,0.2,0,0.5,0,0.7c-0.2,0.6-0.7,1-1.2,1.3c-4.4,2.4-8.8,4.7-13.3,7.1
		c-3.7,2-7.4,2-11.1,0c-4.4-2.3-8.8-4.7-13.3-7c-0.6-0.3-1-0.6-1.3-1.3C5,34.5,5,34.2,5,34z"/>
</g>
</svg>
