<svg width="417" height="760" viewBox="0 0 417 760" fill="none" xmlns="http://www.w3.org/2000/svg">
<g filter="url(#filter0_di_226_278)">
<g clip-path="url(#clip0_226_278)">
<path d="M36.269 59.9539H378.731V699.705C378.731 710.738 369.787 719.682 358.754 719.682H56.2459C45.213 719.682 36.269 710.738 36.269 699.705V59.9539Z" fill="#F0F0F0"/>
<rect width="343" height="689" transform="translate(36 31)" fill="white"/>
<line x1="69.904" y1="145.126" x2="345.591" y2="145.126" stroke="#DFDFDF" stroke-width="7.42424" stroke-linecap="round"/>
<line x1="70.6463" y1="145.374" x2="160.727" y2="145.374" stroke="#2F2F2F" stroke-width="9.89899" stroke-linecap="round"/>
<path d="M284.096 125.37C284.205 127.168 285.742 128.379 287.931 128.379C290.244 128.379 291.723 127.175 291.723 125.341C291.723 123.884 290.839 123.079 288.736 122.55L287.605 122.26C286.068 121.868 285.415 121.339 285.415 120.44C285.415 119.287 286.488 118.482 287.938 118.482C289.425 118.482 290.469 119.265 290.563 120.447H291.556C291.498 118.787 290.005 117.583 287.967 117.583C285.908 117.583 284.386 118.787 284.386 120.476C284.386 121.854 285.249 122.673 287.184 123.166L288.482 123.5C290.034 123.891 290.708 124.471 290.708 125.45C290.708 126.624 289.584 127.48 288.018 127.48C286.38 127.48 285.198 126.624 285.089 125.37H284.096ZM293.699 118.787V120.672H292.575V121.469H293.699V126.356C293.699 127.719 294.206 128.256 295.468 128.256C295.671 128.256 296.077 128.234 296.178 128.212V127.393C296.12 127.407 295.758 127.422 295.656 127.422C294.96 127.422 294.656 127.088 294.656 126.313V121.469H296.142V120.672H294.656V118.787H293.699ZM300.372 121.39C301.735 121.39 302.642 122.426 302.663 123.913H298.009C298.088 122.426 299.024 121.39 300.372 121.39ZM302.605 126.073C302.395 126.9 301.605 127.494 300.467 127.494C298.966 127.494 298.001 126.436 298.001 124.732V124.674H303.649V124.268C303.649 122.02 302.388 120.549 300.387 120.549C298.342 120.549 297.015 122.122 297.015 124.464C297.015 126.856 298.328 128.335 300.445 128.335C302.105 128.335 303.33 127.378 303.555 126.073H302.605ZM308.612 120.549C307.387 120.549 306.43 121.266 306.016 122.267H305.987V120.672H305.081V130.706H306.038V126.661H306.067C306.466 127.639 307.416 128.335 308.634 128.335C310.526 128.335 311.824 126.791 311.824 124.442C311.824 122.1 310.519 120.549 308.612 120.549ZM308.445 127.487C307.017 127.487 306.038 126.262 306.038 124.442C306.038 122.629 307.017 121.397 308.445 121.397C309.903 121.397 310.845 122.608 310.845 124.442C310.845 126.284 309.903 127.487 308.445 127.487ZM319.146 128.212H320.103V117.75H319.132C318.82 117.939 316.602 119.505 316.312 119.686V120.744C316.616 120.556 318.885 118.961 319.117 118.816H319.146V128.212ZM329.122 128.335C331.174 128.335 332.559 126.835 332.559 124.442C332.559 122.042 331.174 120.549 329.122 120.549C327.078 120.549 325.686 122.042 325.686 124.442C325.686 126.835 327.071 128.335 329.122 128.335ZM329.122 127.487C327.643 127.487 326.665 126.356 326.665 124.442C326.665 122.528 327.643 121.397 329.122 121.397C330.601 121.397 331.587 122.528 331.587 124.442C331.587 126.356 330.601 127.487 329.122 127.487ZM334.368 128.212H335.332V121.469H336.949V120.672H335.325V119.737C335.325 118.896 335.709 118.526 336.434 118.526C336.637 118.526 336.84 118.548 336.992 118.577V117.786C336.833 117.757 336.557 117.728 336.296 117.728C335.035 117.728 334.368 118.352 334.368 119.715V120.672H333.317V121.469H334.368V128.212ZM343.612 123.231H344.873C346.555 123.231 347.585 124.043 347.585 125.377C347.585 126.617 346.483 127.509 344.967 127.509C343.459 127.509 342.408 126.668 342.328 125.501H341.371C341.436 127.175 342.865 128.379 344.975 128.379C347.012 128.379 348.592 127.117 348.592 125.348C348.592 123.869 347.563 122.876 345.961 122.782V122.753C347.295 122.513 348.143 121.571 348.143 120.259C348.143 118.707 346.758 117.583 344.917 117.583C343.032 117.583 341.712 118.714 341.589 120.396H342.546C342.655 119.236 343.575 118.453 344.873 118.453C346.287 118.453 347.142 119.251 347.142 120.382C347.142 121.549 346.2 122.39 344.83 122.39H343.612V123.231Z" fill="#AFADAD"/>
<path d="M71.8115 191.79C74.4591 191.79 76.3284 190.361 76.7598 187.984H75.601C75.2372 189.676 73.7655 190.716 71.82 190.716C69.2232 190.716 67.5568 188.678 67.5568 185.463C67.5568 182.291 69.2232 180.27 71.8115 180.27C73.7062 180.27 75.2626 181.505 75.601 183.264H76.7598C76.4299 180.879 74.3914 179.196 71.8115 179.196C68.4957 179.196 66.3726 181.64 66.3726 185.463C66.3726 189.329 68.4873 191.79 71.8115 191.79ZM81.2977 190.775C80.105 190.775 79.2845 190.116 79.2845 189.16C79.2845 188.187 80.0543 187.587 81.4415 187.494L84.0467 187.316V188.289C84.0467 189.684 82.8371 190.775 81.2977 190.775ZM81.0693 191.74C82.3804 191.74 83.5815 191.012 84.0721 189.921H84.0975V191.596H85.1633V185.573C85.1633 183.78 83.9029 182.655 81.8982 182.655C79.8935 182.655 78.5994 183.772 78.4725 185.345H79.5552C79.7497 184.279 80.5787 183.645 81.8729 183.645C83.2432 183.645 84.0467 184.406 84.0467 185.675V186.436L81.3061 186.605C79.2761 186.741 78.1511 187.654 78.1511 189.16C78.1511 190.699 79.3353 191.74 81.0693 191.74ZM87.2143 191.596H88.3308V186.115C88.3308 184.694 89.1259 183.721 90.3778 183.721C90.7585 183.721 91.0714 183.78 91.2152 183.848V182.748C91.0799 182.714 90.8177 182.655 90.5216 182.655C89.4389 182.655 88.6184 183.29 88.297 184.364H88.2716V182.799H87.2143V191.596ZM95.4148 191.74C96.8358 191.74 97.9608 190.919 98.4599 189.735H98.4852V191.596H99.551V179.39H98.426V184.609H98.4006C97.9354 183.467 96.8104 182.655 95.3894 182.655C93.1817 182.655 91.6507 184.457 91.6507 187.197C91.6507 189.93 93.1901 191.74 95.4148 191.74ZM95.6093 183.645C97.2841 183.645 98.4345 185.074 98.4345 187.197C98.4345 189.329 97.2841 190.75 95.6093 190.75C93.9176 190.75 92.801 189.346 92.801 187.197C92.801 185.049 93.9176 183.645 95.6093 183.645ZM101.814 191.596H102.939V186.419C102.939 184.761 103.962 183.653 105.544 183.653C107.032 183.653 107.887 184.575 107.887 186.098V191.596H109.012V185.912C109.012 183.941 107.794 182.655 105.865 182.655C104.461 182.655 103.412 183.34 102.964 184.423H102.939V179.39H101.814V191.596ZM114.632 191.74C117.026 191.74 118.642 189.989 118.642 187.197C118.642 184.398 117.026 182.655 114.632 182.655C112.247 182.655 110.623 184.398 110.623 187.197C110.623 189.989 112.239 191.74 114.632 191.74ZM114.632 190.75C112.907 190.75 111.765 189.431 111.765 187.197C111.765 184.964 112.907 183.645 114.632 183.645C116.358 183.645 117.508 184.964 117.508 187.197C117.508 189.431 116.358 190.75 114.632 190.75ZM120.38 191.596H121.496V179.39H120.38V191.596ZM126.999 191.74C128.42 191.74 129.545 190.919 130.044 189.735H130.069V191.596H131.135V179.39H130.01V184.609H129.984C129.519 183.467 128.394 182.655 126.973 182.655C124.765 182.655 123.234 184.457 123.234 187.197C123.234 189.93 124.774 191.74 126.999 191.74ZM127.193 183.645C128.868 183.645 130.018 185.074 130.018 187.197C130.018 189.329 128.868 190.75 127.193 190.75C125.501 190.75 124.385 189.346 124.385 187.197C124.385 185.049 125.501 183.645 127.193 183.645ZM136.798 183.636C138.388 183.636 139.445 184.846 139.471 186.58H134.04C134.133 184.846 135.224 183.636 136.798 183.636ZM139.403 189.101C139.158 190.065 138.236 190.759 136.908 190.759C135.157 190.759 134.032 189.524 134.032 187.536V187.468H140.621V186.994C140.621 184.372 139.149 182.655 136.815 182.655C134.429 182.655 132.881 184.491 132.881 187.223C132.881 190.014 134.412 191.74 136.882 191.74C138.819 191.74 140.249 190.623 140.511 189.101H139.403ZM142.291 191.596H143.408V186.115C143.408 184.694 144.203 183.721 145.455 183.721C145.836 183.721 146.148 183.78 146.292 183.848V182.748C146.157 182.714 145.895 182.655 145.599 182.655C144.516 182.655 143.695 183.29 143.374 184.364H143.349V182.799H142.291V191.596ZM151.401 191.596H152.517V186.385C152.517 184.753 153.541 183.653 155.064 183.653C156.535 183.653 157.381 184.533 157.381 186.072V191.596H158.498V185.895C158.498 183.899 157.314 182.655 155.385 182.655C153.964 182.655 152.932 183.357 152.484 184.423H152.458V182.799H151.401V191.596ZM163.391 190.775C162.198 190.775 161.378 190.116 161.378 189.16C161.378 188.187 162.147 187.587 163.535 187.494L166.14 187.316V188.289C166.14 189.684 164.93 190.775 163.391 190.775ZM163.162 191.74C164.474 191.74 165.675 191.012 166.165 189.921H166.191V191.596H167.256V185.573C167.256 183.78 165.996 182.655 163.991 182.655C161.987 182.655 160.693 183.772 160.566 185.345H161.648C161.843 184.279 162.672 183.645 163.966 183.645C165.336 183.645 166.14 184.406 166.14 185.675V186.436L163.399 186.605C161.369 186.741 160.244 187.654 160.244 189.16C160.244 190.699 161.428 191.74 163.162 191.74ZM169.307 191.596H170.424V186.191C170.424 184.694 171.354 183.653 172.649 183.653C173.85 183.653 174.662 184.474 174.662 185.734V191.596H175.787V186.056C175.787 184.651 176.683 183.653 177.986 183.653C179.263 183.653 180.025 184.474 180.025 185.836V191.596H181.141V185.582C181.141 183.806 180.016 182.655 178.299 182.655C176.971 182.655 175.939 183.425 175.525 184.508H175.499C175.169 183.4 174.239 182.655 172.953 182.655C171.676 182.655 170.771 183.391 170.39 184.423H170.365V182.799H169.307V191.596ZM186.677 183.636C188.267 183.636 189.325 184.846 189.35 186.58H183.92C184.013 184.846 185.104 183.636 186.677 183.636ZM189.282 189.101C189.037 190.065 188.115 190.759 186.787 190.759C185.036 190.759 183.911 189.524 183.911 187.536V187.468H190.5V186.994C190.5 184.372 189.029 182.655 186.694 182.655C184.309 182.655 182.761 184.491 182.761 187.223C182.761 190.014 184.292 191.74 186.762 191.74C188.699 191.74 190.128 190.623 190.39 189.101H189.282Z" fill="#6A6A6A"/>
<path d="M73.7356 256.87H67.5185V252.184H73.4226V251.152H67.5185V246.762H73.7356V245.713H66.3681V257.919H73.7356V256.87ZM75.702 257.919H76.8186V252.514C76.8186 251.017 77.749 249.977 79.0432 249.977C80.2443 249.977 81.0563 250.797 81.0563 252.057V257.919H82.1813V252.379C82.1813 250.975 83.0779 249.977 84.3805 249.977C85.6578 249.977 86.4191 250.797 86.4191 252.159V257.919H87.5356V251.905C87.5356 250.129 86.4106 248.978 84.6935 248.978C83.3655 248.978 82.3336 249.748 81.9191 250.831H81.8937C81.5638 249.723 80.6334 248.978 79.3477 248.978C78.0704 248.978 77.1654 249.714 76.7847 250.746H76.7593V249.122H75.702V257.919ZM92.4287 257.099C91.2361 257.099 90.4156 256.439 90.4156 255.483C90.4156 254.51 91.1853 253.91 92.5725 253.817L95.1778 253.639V254.612C95.1778 256.008 93.9682 257.099 92.4287 257.099ZM92.2004 258.063C93.5114 258.063 94.7126 257.336 95.2032 256.244H95.2285V257.919H96.2943V251.897C96.2943 250.103 95.034 248.978 93.0293 248.978C91.0246 248.978 89.7305 250.095 89.6036 251.668H90.6863C90.8808 250.602 91.7098 249.968 93.0039 249.968C94.3742 249.968 95.1778 250.729 95.1778 251.998V252.759L92.4372 252.929C90.4071 253.064 89.2821 253.977 89.2821 255.483C89.2821 257.023 90.4663 258.063 92.2004 258.063ZM98.4215 257.919H99.538V249.122H98.4215V257.919ZM98.9798 247.346C99.3942 247.346 99.7326 247.016 99.7326 246.602C99.7326 246.196 99.3942 245.866 98.9798 245.866C98.5738 245.866 98.2354 246.196 98.2354 246.602C98.2354 247.016 98.5738 247.346 98.9798 247.346ZM101.792 257.919H102.909V245.713H101.792V257.919Z" fill="#6A6A6A"/>
<path d="M71.8115 329.881C74.4591 329.881 76.3284 328.452 76.7598 326.075H75.601C75.2372 327.767 73.7655 328.807 71.82 328.807C69.2232 328.807 67.5568 326.769 67.5568 323.554C67.5568 320.382 69.2232 318.361 71.8115 318.361C73.7062 318.361 75.2626 319.596 75.601 321.355H76.7598C76.4299 318.97 74.3914 317.286 71.8115 317.286C68.4957 317.286 66.3726 319.731 66.3726 323.554C66.3726 327.42 68.4873 329.881 71.8115 329.881ZM81.2977 328.866C80.105 328.866 79.2845 328.207 79.2845 327.251C79.2845 326.278 80.0543 325.677 81.4415 325.584L84.0467 325.407V326.379C84.0467 327.775 82.8371 328.866 81.2977 328.866ZM81.0693 329.831C82.3804 329.831 83.5815 329.103 84.0721 328.012H84.0975V329.687H85.1633V323.664C85.1633 321.871 83.9029 320.746 81.8982 320.746C79.8935 320.746 78.5994 321.863 78.4725 323.436H79.5552C79.7497 322.37 80.5787 321.736 81.8729 321.736C83.2432 321.736 84.0467 322.497 84.0467 323.766V324.527L81.3061 324.696C79.2761 324.832 78.1511 325.745 78.1511 327.251C78.1511 328.79 79.3353 329.831 81.0693 329.831ZM87.2143 329.687H88.3308V324.206C88.3308 322.785 89.1259 321.812 90.3778 321.812C90.7585 321.812 91.0714 321.871 91.2152 321.939V320.839C91.0799 320.805 90.8177 320.746 90.5216 320.746C89.4389 320.746 88.6184 321.38 88.297 322.455H88.2716V320.89H87.2143V329.687ZM95.4148 329.831C96.8358 329.831 97.9608 329.01 98.4599 327.826H98.4852V329.687H99.551V317.481H98.426V322.7H98.4006C97.9354 321.558 96.8104 320.746 95.3894 320.746C93.1817 320.746 91.6507 322.548 91.6507 325.288C91.6507 328.02 93.1901 329.831 95.4148 329.831ZM95.6093 321.736C97.2841 321.736 98.4345 323.165 98.4345 325.288C98.4345 327.42 97.2841 328.841 95.6093 328.841C93.9176 328.841 92.801 327.437 92.801 325.288C92.801 323.14 93.9176 321.736 95.6093 321.736ZM106.783 329.687V319.486H106.842L114.023 329.687H115.14V317.481H113.998V327.674H113.939L106.783 317.481H105.641V329.687H106.783ZM124.482 320.89H123.366V326.109C123.366 327.758 122.334 328.832 120.803 328.832C119.331 328.832 118.502 327.97 118.502 326.413V320.89H117.377V326.608C117.377 328.587 118.57 329.831 120.481 329.831C121.877 329.831 122.934 329.137 123.4 328.054H123.425V329.687H124.482V320.89ZM126.584 329.687H127.701V324.282C127.701 322.785 128.631 321.744 129.925 321.744C131.126 321.744 131.938 322.565 131.938 323.825V329.687H133.063V324.146C133.063 322.742 133.96 321.744 135.263 321.744C136.54 321.744 137.301 322.565 137.301 323.926V329.687H138.418V323.673C138.418 321.896 137.293 320.746 135.576 320.746C134.248 320.746 133.216 321.516 132.801 322.598H132.776C132.446 321.49 131.515 320.746 130.23 320.746C128.952 320.746 128.047 321.482 127.667 322.514H127.641V320.89H126.584V329.687ZM144.706 329.831C146.923 329.831 148.428 328.029 148.428 325.288C148.428 322.548 146.923 320.746 144.715 320.746C143.336 320.746 142.203 321.516 141.704 322.725H141.678V317.481H140.553V329.687H141.628V327.826H141.653C142.177 329.061 143.302 329.831 144.706 329.831ZM144.495 321.736C146.187 321.736 147.278 323.14 147.278 325.288C147.278 327.445 146.187 328.841 144.495 328.841C142.837 328.841 141.67 327.403 141.67 325.288C141.67 323.182 142.846 321.736 144.495 321.736ZM153.584 321.727C155.174 321.727 156.231 322.937 156.257 324.671H150.826C150.919 322.937 152.01 321.727 153.584 321.727ZM156.189 327.191C155.944 328.156 155.022 328.849 153.694 328.849C151.943 328.849 150.818 327.614 150.818 325.627V325.559H157.407V325.085C157.407 322.463 155.935 320.746 153.601 320.746C151.215 320.746 149.667 322.582 149.667 325.314C149.667 328.105 151.198 329.831 153.668 329.831C155.605 329.831 157.035 328.714 157.297 327.191H156.189ZM159.077 329.687H160.194V324.206C160.194 322.785 160.989 321.812 162.241 321.812C162.621 321.812 162.934 321.871 163.078 321.939V320.839C162.943 320.805 162.681 320.746 162.385 320.746C161.302 320.746 160.481 321.38 160.16 322.455H160.135V320.89H159.077V329.687Z" fill="#6A6A6A"/>
<line x1="66.1919" y1="213.429" x2="349.303" y2="213.429" stroke="#747474" stroke-width="0.49495"/>
<line x1="66.1919" y1="279.753" x2="349.303" y2="279.753" stroke="#747474" stroke-width="0.49495"/>
<line x1="66.1919" y1="351.52" x2="349.303" y2="351.52" stroke="#747474" stroke-width="0.49495"/>
<line x1="66.1919" y1="424.278" x2="139.444" y2="424.278" stroke="#747474" stroke-width="0.49495"/>
<line x1="178.545" y1="424.278" x2="251.798" y2="424.278" stroke="#747474" stroke-width="0.49495"/>
<path d="M73.7356 399.911H67.5185V395.225H73.4226V394.193H67.5185V389.803H73.7356V388.754H66.3681V400.959H73.7356V399.911ZM78.6372 397.348L81.0479 400.959H82.3082L79.2631 396.493L82.3336 392.163H81.0732L78.671 395.69H78.6456L76.2349 392.163H74.9661L78.0197 396.536L74.9323 400.959H76.1842L78.6118 397.348H78.6372ZM87.7934 392.019C86.3639 392.019 85.2474 392.856 84.7652 394.023H84.7314V392.163H83.6741V403.869H84.7906V399.149H84.8245C85.2897 400.291 86.3978 401.103 87.8188 401.103C90.0265 401.103 91.5406 399.302 91.5406 396.561C91.5406 393.829 90.018 392.019 87.7934 392.019ZM87.5989 400.114C85.9325 400.114 84.7906 398.684 84.7906 396.561C84.7906 394.446 85.9325 393.008 87.5989 393.008C89.2991 393.008 90.3987 394.421 90.3987 396.561C90.3987 398.709 89.2991 400.114 87.5989 400.114ZM93.2956 400.959H94.4121V392.163H93.2956V400.959ZM93.8539 390.386C94.2683 390.386 94.6067 390.056 94.6067 389.642C94.6067 389.236 94.2683 388.906 93.8539 388.906C93.4478 388.906 93.1095 389.236 93.1095 389.642C93.1095 390.056 93.4478 390.386 93.8539 390.386ZM96.59 400.959H97.7066V395.478C97.7066 394.057 98.5017 393.085 99.7536 393.085C100.134 393.085 100.447 393.144 100.591 393.211V392.112C100.456 392.078 100.193 392.019 99.8974 392.019C98.8147 392.019 97.9942 392.653 97.6727 393.727H97.6474V392.163H96.59V400.959ZM102.6 404.14C104.046 404.14 104.672 403.565 105.442 401.492L108.901 392.163H107.726L105.044 399.843H105.019L102.346 392.163H101.145L104.444 401.019L104.207 401.678C103.818 402.778 103.378 403.184 102.574 403.184C102.397 403.184 102.177 403.167 102.041 403.133V404.089C102.168 404.115 102.422 404.14 102.6 404.14ZM114.086 388.754V400.959H118.045C121.707 400.959 123.83 398.718 123.83 394.852C123.83 390.995 121.699 388.754 118.045 388.754H114.086ZM115.245 389.803H117.977C120.98 389.803 122.655 391.613 122.655 394.861C122.655 398.1 120.98 399.911 117.977 399.911H115.245V389.803ZM128.402 400.139C127.21 400.139 126.389 399.479 126.389 398.523C126.389 397.551 127.159 396.95 128.546 396.857L131.151 396.679V397.652C131.151 399.048 129.942 400.139 128.402 400.139ZM128.174 401.103C129.485 401.103 130.686 400.376 131.177 399.285H131.202V400.959H132.268V394.937C132.268 393.144 131.007 392.019 129.003 392.019C126.998 392.019 125.704 393.135 125.577 394.709H126.66C126.854 393.643 127.683 393.008 128.977 393.008C130.348 393.008 131.151 393.77 131.151 395.038V395.8L128.411 395.969C126.381 396.104 125.256 397.018 125.256 398.523C125.256 400.063 126.44 401.103 128.174 401.103ZM134.801 389.963V392.163H133.49V393.093H134.801V398.794C134.801 400.384 135.393 401.01 136.865 401.01C137.102 401.01 137.575 400.985 137.694 400.959V400.004C137.626 400.021 137.203 400.037 137.085 400.037C136.273 400.037 135.918 399.648 135.918 398.743V393.093H137.652V392.163H135.918V389.963H134.801ZM142.587 393C144.177 393 145.234 394.21 145.26 395.944H139.829C139.922 394.21 141.014 393 142.587 393ZM145.192 398.464C144.947 399.428 144.025 400.122 142.697 400.122C140.946 400.122 139.821 398.887 139.821 396.899V396.832H146.41V396.358C146.41 393.736 144.938 392.019 142.604 392.019C140.219 392.019 138.671 393.854 138.671 396.586C138.671 399.378 140.202 401.103 142.672 401.103C144.609 401.103 146.038 399.987 146.3 398.464H145.192Z" fill="#6A6A6A"/>
<path d="M184.66 401.154C187.308 401.154 189.177 399.725 189.608 397.348H188.45C188.086 399.039 186.614 400.08 184.669 400.08C182.072 400.08 180.405 398.041 180.405 394.827C180.405 391.655 182.072 389.633 184.66 389.633C186.555 389.633 188.111 390.868 188.45 392.628H189.608C189.279 390.242 187.24 388.559 184.66 388.559C181.344 388.559 179.221 391.004 179.221 394.827C179.221 398.693 181.336 401.154 184.66 401.154ZM196.261 400.959L200.829 388.754H199.611L195.711 399.522H195.66L191.769 388.754H190.543L195.111 400.959H196.261ZM207.109 400.959L211.677 388.754H210.459L206.559 399.522H206.508L202.617 388.754H201.391L205.959 400.959H207.109Z" fill="#6A6A6A"/>
<path d="M160.433 677.107V684.99H161.416V682.176H163.235C164.716 682.176 165.77 681.133 165.77 679.636C165.77 678.145 164.727 677.107 163.246 677.107H160.433ZM161.416 677.981H162.99C164.12 677.981 164.759 678.593 164.759 679.636C164.759 680.685 164.115 681.302 162.99 681.302H161.416V677.981ZM168.947 685.088C170.514 685.088 171.574 683.957 171.574 682.149C171.574 680.335 170.514 679.21 168.947 679.21C167.373 679.21 166.313 680.335 166.313 682.149C166.313 683.957 167.373 685.088 168.947 685.088ZM168.947 684.252C167.941 684.252 167.28 683.487 167.28 682.149C167.28 680.811 167.941 680.046 168.947 680.046C169.952 680.046 170.607 680.811 170.607 682.149C170.607 683.487 169.952 684.252 168.947 684.252ZM179.875 679.309H178.935L177.799 683.93H177.777L176.488 679.309H175.57L174.286 683.93H174.264L173.128 679.309H172.183L173.773 684.99H174.74L176.018 680.592H176.04L177.324 684.99H178.29L179.875 679.309ZM183.046 680.035C183.942 680.035 184.537 680.712 184.559 681.663H181.472C181.532 680.718 182.155 680.035 183.046 680.035ZM184.537 683.362C184.379 683.897 183.849 684.263 183.128 684.263C182.106 684.263 181.467 683.548 181.467 682.46V682.406H185.542V682.045C185.542 680.325 184.597 679.21 183.062 679.21C181.494 679.21 180.489 680.407 180.489 682.171C180.489 683.957 181.478 685.088 183.106 685.088C184.346 685.088 185.307 684.356 185.471 683.362H184.537ZM186.615 684.99H187.566V681.45C187.566 680.647 188.047 680.117 188.784 680.117C189.014 680.117 189.216 680.144 189.292 680.172V679.248C189.216 679.237 189.074 679.21 188.91 679.21C188.243 679.21 187.719 679.609 187.533 680.237H187.511V679.309H186.615V684.99ZM192.185 680.035C193.08 680.035 193.676 680.712 193.698 681.663H190.611C190.671 680.718 191.294 680.035 192.185 680.035ZM193.676 683.362C193.517 683.897 192.988 684.263 192.267 684.263C191.245 684.263 190.606 683.548 190.606 682.46V682.406H194.681V682.045C194.681 680.325 193.736 679.21 192.201 679.21C190.633 679.21 189.628 680.407 189.628 682.171C189.628 683.957 190.617 685.088 192.245 685.088C193.485 685.088 194.446 684.356 194.61 683.362H193.676ZM197.907 685.088C198.726 685.088 199.376 684.684 199.742 684.028H199.759V684.99H200.665V677.107H199.715V680.232H199.693C199.354 679.609 198.699 679.21 197.885 679.21C196.454 679.21 195.476 680.368 195.476 682.149C195.476 683.93 196.459 685.088 197.907 685.088ZM198.087 680.046C199.065 680.046 199.72 680.882 199.72 682.149C199.72 683.422 199.065 684.252 198.087 684.252C197.082 684.252 196.448 683.438 196.448 682.149C196.448 680.865 197.082 680.046 198.087 680.046ZM207.291 685.088C208.745 685.088 209.706 683.935 209.706 682.149C209.706 680.368 208.739 679.21 207.308 679.21C206.505 679.21 205.844 679.609 205.489 680.259H205.467V677.107H204.516V684.99H205.423V684.028H205.445C205.811 684.684 206.461 685.088 207.291 685.088ZM207.106 680.046C208.111 680.046 208.734 680.86 208.734 682.149C208.734 683.449 208.111 684.252 207.106 684.252C206.144 684.252 205.461 683.416 205.461 682.149C205.461 680.887 206.144 680.046 207.106 680.046ZM211.091 687.115C212.118 687.115 212.587 686.716 213.074 685.389L215.308 679.309H214.308L212.735 684.039H212.719L211.145 679.309H210.129L212.227 684.995L212.096 685.394C211.877 686.055 211.582 686.312 211.052 686.312C210.932 686.312 210.785 686.306 210.681 686.284V687.082C210.785 687.104 210.976 687.115 211.091 687.115Z" fill="#292929"/>
<g clip-path="url(#clip1_226_278)">
<path d="M228.601 684.527H227.764L226.847 680.772L225.909 684.527H225.077L223.409 678.854H224.483L225.484 682.819L226.452 678.854H227.221L228.171 682.819L229.178 678.854H230.252L228.601 684.527Z" fill="#231F20"/>
<path d="M234.635 682.853H231.344C231.468 683.368 231.909 683.69 232.52 683.69C232.944 683.69 233.193 683.577 233.459 683.266H234.573C234.29 684.143 233.408 684.623 232.549 684.623C231.253 684.623 230.247 683.656 230.247 682.412C230.247 681.162 231.236 680.172 232.486 680.172C233.753 680.172 234.681 681.139 234.681 682.463C234.675 682.615 234.669 682.706 234.635 682.853ZM232.498 681.111C231.892 681.111 231.474 681.411 231.316 681.954H233.674C233.538 681.411 233.125 681.111 232.498 681.111Z" fill="#231F20"/>
<path d="M237.747 684.629C237.119 684.629 236.712 684.454 236.27 683.984V684.527H235.332V678.854H236.355V680.664C236.745 680.274 237.124 680.121 237.679 680.121C238.9 680.121 239.822 681.088 239.822 682.372C239.822 683.65 238.946 684.629 237.747 684.629ZM237.532 681.054C236.819 681.054 236.293 681.597 236.293 682.367C236.293 683.141 236.813 683.69 237.554 683.69C238.284 683.69 238.793 683.153 238.793 682.378C238.793 681.614 238.261 681.054 237.532 681.054Z" fill="#231F20"/>
<path d="M242.175 684.906C241.078 684.906 240.269 684.148 240.207 683.079H241.242C241.309 683.617 241.671 683.967 242.169 683.967C242.684 683.967 243.063 683.566 243.063 683.017C243.063 682.44 242.622 682.061 241.943 682.061H241.773V681.071C242.424 681.055 242.65 680.879 242.65 680.483C242.65 680.167 242.441 679.946 242.146 679.946C241.869 679.946 241.717 680.11 241.666 680.461H240.625C240.704 679.499 241.343 679.001 242.135 679.001C243.012 679.001 243.668 679.658 243.668 680.534C243.668 680.975 243.521 681.275 243.187 681.513C243.775 681.773 244.075 682.271 244.075 682.983C244.086 684.092 243.278 684.906 242.175 684.906Z" fill="#231F20"/>
<path d="M245.093 679.159H247.01C247.513 679.159 247.926 679.318 248.249 679.64C248.571 679.963 248.729 680.375 248.729 680.884C248.729 681.393 248.565 681.812 248.243 682.134C247.92 682.457 247.502 682.621 246.999 682.621H245.76V684.538H245.087V679.159H245.093ZM245.766 679.753V682.021H246.84C247.225 682.021 247.519 681.919 247.734 681.722C247.943 681.524 248.051 681.241 248.051 680.884C248.051 680.528 247.943 680.251 247.734 680.053C247.525 679.855 247.225 679.759 246.84 679.759H245.766V679.753Z" fill="#44C7F4"/>
<path d="M250.2 684.606C249.816 684.606 249.505 684.499 249.267 684.284C249.029 684.069 248.911 683.792 248.911 683.441C248.911 683.107 249.035 682.841 249.278 682.643C249.521 682.445 249.866 682.332 250.319 682.31L251.427 682.247V681.919C251.427 681.682 251.354 681.501 251.201 681.365C251.054 681.229 250.845 681.162 250.573 681.162C250.325 681.162 250.127 681.218 249.974 681.326C249.821 681.433 249.719 681.586 249.68 681.778H249.052C249.075 681.433 249.222 681.15 249.499 680.924C249.776 680.703 250.138 680.59 250.585 680.59C251.037 680.59 251.399 680.703 251.665 680.935C251.931 681.162 252.067 681.473 252.067 681.857V684.538H251.45V683.871H251.433C251.314 684.091 251.145 684.272 250.918 684.402C250.704 684.538 250.46 684.606 250.2 684.606ZM250.347 684.052C250.653 684.052 250.907 683.956 251.116 683.769C251.326 683.577 251.427 683.345 251.427 683.068V682.751L250.392 682.813C250.132 682.83 249.929 682.892 249.787 683.005C249.646 683.113 249.572 683.26 249.572 683.447C249.572 683.633 249.646 683.78 249.787 683.888C249.923 683.995 250.11 684.052 250.347 684.052Z" fill="#44C7F4"/>
<path d="M253.22 685.986C253.107 685.986 253.011 685.98 252.943 685.963V685.42C253.005 685.432 253.085 685.437 253.198 685.437C253.379 685.437 253.526 685.392 253.633 685.296C253.741 685.2 253.837 685.041 253.91 684.815L254.001 684.544L252.57 680.664H253.265L254.34 683.893H254.351L255.426 680.664H256.11L254.583 684.815C254.419 685.268 254.238 685.579 254.046 685.743C253.842 685.907 253.571 685.986 253.22 685.986Z" fill="#44C7F4"/>
<path d="M256.897 690.075H222.985C221.113 690.075 219.586 688.548 219.586 686.676V677.016C219.586 675.144 221.113 673.617 222.985 673.617H256.903C258.775 673.617 260.302 675.144 260.302 677.016V686.676C260.297 688.554 258.775 690.075 256.897 690.075ZM222.985 674.12C221.384 674.12 220.089 675.421 220.089 677.016V686.676C220.089 688.277 221.39 689.572 222.985 689.572H256.903C258.504 689.572 259.799 688.271 259.799 686.676V677.016C259.799 675.415 258.498 674.12 256.903 674.12H222.985Z" fill="#231F20"/>
</g>
<rect x="65.6968" y="602.212" width="283.606" height="47.5152" rx="23.7576" fill="#232323"/>
<path d="M187.837 631.75C190.15 631.75 191.702 630.597 192.18 628.531H190.861C190.484 629.807 189.382 630.546 187.845 630.546C185.778 630.546 184.466 628.908 184.466 626.341C184.466 623.796 185.793 622.143 187.837 622.143C189.331 622.143 190.527 623.042 190.861 624.413H192.18C191.847 622.325 190.114 620.94 187.837 620.94C184.973 620.94 183.125 623.057 183.125 626.341C183.125 629.655 184.952 631.75 187.837 631.75ZM196.654 631.706C198.734 631.706 200.141 630.206 200.141 627.806C200.141 625.399 198.734 623.905 196.654 623.905C194.565 623.905 193.159 625.399 193.159 627.806C193.159 630.206 194.565 631.706 196.654 631.706ZM196.654 630.597C195.32 630.597 194.442 629.582 194.442 627.806C194.442 626.029 195.32 625.014 196.654 625.014C197.988 625.014 198.858 626.029 198.858 627.806C198.858 629.582 197.988 630.597 196.654 630.597ZM201.417 631.576H202.679V627.139C202.679 625.863 203.454 625.022 204.643 625.022C205.803 625.022 206.376 625.689 206.376 626.907V631.576H207.638V626.682C207.638 624.971 206.681 623.905 205.028 623.905C203.86 623.905 203.056 624.427 202.635 625.239H202.606V624.036H201.417V631.576ZM209.653 622.216V624.036H208.529V625.072H209.653V629.618C209.653 631.068 210.19 631.634 211.575 631.634C211.872 631.634 212.22 631.612 212.372 631.576V630.517C212.285 630.532 211.995 630.554 211.85 630.554C211.205 630.554 210.915 630.242 210.915 629.553V625.072H212.379V624.036H210.915V622.216H209.653ZM213.793 631.576H215.055V624.036H213.793V631.576ZM214.424 622.767C214.859 622.767 215.214 622.412 215.214 621.984C215.214 621.549 214.859 621.201 214.424 621.201C213.996 621.201 213.641 621.549 213.641 621.984C213.641 622.412 213.996 622.767 214.424 622.767ZM216.758 631.576H218.02V627.139C218.02 625.863 218.796 625.022 219.985 625.022C221.145 625.022 221.718 625.689 221.718 626.907V631.576H222.979V626.682C222.979 624.971 222.022 623.905 220.369 623.905C219.202 623.905 218.397 624.427 217.977 625.239H217.948V624.036H216.758V631.576ZM230.78 624.036H229.519V628.466C229.519 629.749 228.779 630.59 227.554 630.59C226.387 630.59 225.814 629.93 225.814 628.705V624.036H224.552V628.93C224.552 630.641 225.517 631.706 227.163 631.706C228.323 631.706 229.106 631.221 229.555 630.351H229.584V631.576H230.78V624.036ZM235.442 625C236.631 625 237.422 625.899 237.451 627.161H233.354C233.434 625.906 234.261 625 235.442 625ZM237.422 629.415C237.211 630.126 236.508 630.612 235.551 630.612C234.195 630.612 233.347 629.662 233.347 628.219V628.147H238.756V627.668C238.756 625.384 237.501 623.905 235.464 623.905C233.383 623.905 232.049 625.493 232.049 627.835C232.049 630.206 233.362 631.706 235.522 631.706C237.168 631.706 238.444 630.735 238.661 629.415H237.422Z" fill="white"/>
</g>
<path d="M33.4155 56.1487C33.4155 41.9635 44.9149 30.4641 59.1001 30.4641H356.851C371.037 30.4641 382.536 41.9635 382.536 56.1487V59.9539H33.4155V56.1487Z" fill="white"/>
<path opacity="0.4" d="M329.991 43.9208C329.991 42.7825 330.914 41.8597 332.052 41.8597H348.523C349.661 41.8597 350.584 42.7825 350.584 43.9208V50.3023C350.584 51.4406 349.661 52.3634 348.523 52.3634H332.052C330.914 52.3634 329.991 51.4406 329.991 50.3023V43.9208Z" stroke="#727272" stroke-width="0.951282"/>
<path opacity="0.5" d="M352.039 45.0901V49.133C352.83 48.7906 353.344 47.9941 353.344 47.1116C353.344 46.2291 352.83 45.4325 352.039 45.0901Z" fill="#727272"/>
<path d="M331.474 44.6739C331.474 43.9734 332.042 43.4055 332.742 43.4055H347.832C348.533 43.4055 349.101 43.9734 349.101 44.6739V49.5492C349.101 50.2497 348.533 50.8176 347.832 50.8176H332.742C332.042 50.8176 331.474 50.2497 331.474 49.5492V44.6739Z" fill="#727272"/>
<path fill-rule="evenodd" clip-rule="evenodd" d="M317.113 43.6487C319.291 43.6488 321.386 44.4954 322.965 46.0137C323.084 46.1309 323.274 46.1295 323.391 46.0104L324.528 44.8502C324.587 44.7899 324.62 44.7081 324.62 44.623C324.619 44.5379 324.585 44.4565 324.525 44.3968C320.381 40.3798 313.843 40.3798 309.699 44.3968C309.639 44.4564 309.605 44.5378 309.604 44.6229C309.604 44.708 309.637 44.7898 309.696 44.8502L310.833 46.0104C310.95 46.1296 311.14 46.1311 311.259 46.0137C312.838 44.4953 314.934 43.6486 317.113 43.6487ZM317.111 47.4142C318.309 47.4141 319.465 47.8756 320.353 48.709C320.473 48.8273 320.663 48.8248 320.78 48.7033L321.916 47.5135C321.976 47.4511 322.009 47.3664 322.008 47.2784C322.008 47.1904 321.973 47.1065 321.912 47.0454C319.207 44.4383 315.018 44.4383 312.313 47.0454C312.251 47.1065 312.217 47.1905 312.216 47.2785C312.215 47.3665 312.248 47.4512 312.308 47.5135L313.445 48.7033C313.562 48.8248 313.751 48.8273 313.871 48.709C314.759 47.8762 315.913 47.4147 317.111 47.4142ZM319.397 50.167C319.399 50.2534 319.365 50.3367 319.304 50.3972L317.331 52.4097C317.273 52.4689 317.195 52.5021 317.112 52.5021C317.03 52.5021 316.951 52.4689 316.893 52.4097L314.92 50.3972C314.859 50.3366 314.825 50.2533 314.827 50.167C314.829 50.0806 314.866 49.9988 314.93 49.9409C316.19 48.8637 318.035 48.8637 319.295 49.9409C319.358 49.9989 319.395 50.0807 319.397 50.167Z" fill="#727272"/>
<path fill-rule="evenodd" clip-rule="evenodd" d="M304.707 42.7314C304.707 42.1732 304.269 41.7207 303.728 41.7207H302.749C302.208 41.7207 301.77 42.1732 301.77 42.7314V51.4912C301.77 52.0494 302.208 52.5019 302.749 52.5019H303.728C304.269 52.5019 304.707 52.0494 304.707 51.4912V42.7314ZM298.179 44.0791H299.158C299.699 44.0791 300.137 44.5316 300.137 45.0898V51.4912C300.137 52.0494 299.699 52.5019 299.158 52.5019H298.179C297.638 52.5019 297.2 52.0494 297.2 51.4912V45.0898C297.2 44.5316 297.638 44.0791 298.179 44.0791ZM294.588 46.4375H293.609C293.068 46.4375 292.63 46.89 292.63 47.4482V51.4912C292.63 52.0494 293.068 52.5019 293.609 52.5019H294.588C295.129 52.5019 295.568 52.0494 295.568 51.4912V47.4482C295.568 46.89 295.129 46.4375 294.588 46.4375ZM290.998 49.4697C290.998 48.9115 290.559 48.459 290.019 48.459H289.039C288.498 48.459 288.06 48.9115 288.06 49.4697V51.4912C288.06 52.0494 288.498 52.5019 289.039 52.5019H290.019C290.559 52.5019 290.998 52.0494 290.998 51.4912V49.4697Z" fill="#727272"/>
<path d="M68.7491 43.0038C69.7245 43.0038 70.5095 43.2268 71.1041 43.6727C71.7033 44.1139 72.0029 44.7108 72.0029 45.4633C72.0029 45.9835 71.8589 46.448 71.5709 46.8568C71.2829 47.2609 70.8184 47.6232 70.1774 47.9437C70.9392 48.3524 71.485 48.7798 71.8148 49.2257C72.1492 49.6669 72.3164 50.1523 72.3164 50.6819C72.3164 51.518 71.9889 52.1915 71.334 52.7024C70.6791 53.2087 69.8174 53.4619 68.7491 53.4619C67.6343 53.4619 66.7587 53.225 66.1224 52.7512C65.486 52.2774 65.1679 51.6062 65.1679 50.7376C65.1679 50.157 65.3211 49.6414 65.6277 49.1908C65.9389 48.7403 66.4359 48.3431 67.1187 47.9994C66.5381 47.6325 66.1201 47.24 65.8646 46.8219C65.6091 46.4039 65.4814 45.9464 65.4814 45.4494C65.4814 44.7201 65.7833 44.1302 66.3872 43.6796C66.991 43.2291 67.7783 43.0038 68.7491 43.0038ZM67.1605 50.6122C67.1605 51.0117 67.2999 51.3229 67.5786 51.5458C67.8573 51.7688 68.2382 51.8803 68.7212 51.8803C69.2554 51.8803 69.6549 51.7665 69.9196 51.5389C70.1844 51.3066 70.3168 51.0024 70.3168 50.6261C70.3168 50.3149 70.1844 50.0246 69.9196 49.7552C69.6595 49.4812 69.2345 49.1908 68.6446 48.8843C67.6552 49.3395 67.1605 49.9155 67.1605 50.6122ZM68.7352 44.5784C68.3682 44.5784 68.0709 44.6736 67.8433 44.8641C67.6204 45.0499 67.5089 45.3007 67.5089 45.6166C67.5089 45.8953 67.5972 46.1461 67.7737 46.369C67.9548 46.5874 68.28 46.8126 68.7491 47.0449C69.2043 46.8312 69.5225 46.6129 69.7036 46.3899C69.8848 46.167 69.9754 45.9092 69.9754 45.6166C69.9754 45.2961 69.8592 45.0429 69.627 44.8571C69.3947 44.6713 69.0975 44.5784 68.7352 44.5784ZM73.8547 52.3262C73.8547 51.936 73.9593 51.641 74.1683 51.4413C74.3773 51.2416 74.6815 51.1417 75.081 51.1417C75.4665 51.1417 75.7638 51.2439 75.9728 51.4483C76.1865 51.6527 76.2933 51.9453 76.2933 52.3262C76.2933 52.6931 76.1865 52.9834 75.9728 53.1971C75.7592 53.4061 75.4619 53.5106 75.081 53.5106C74.6908 53.5106 74.3889 53.4084 74.1752 53.2041C73.9616 52.995 73.8547 52.7024 73.8547 52.3262ZM73.8547 46.5711C73.8547 46.1809 73.9593 45.886 74.1683 45.6862C74.3773 45.4865 74.6815 45.3866 75.081 45.3866C75.4665 45.3866 75.7638 45.4888 75.9728 45.6932C76.1865 45.8976 76.2933 46.1902 76.2933 46.5711C76.2933 46.9473 76.1842 47.24 75.9659 47.449C75.7522 47.6534 75.4572 47.7556 75.081 47.7556C74.6908 47.7556 74.3889 47.6534 74.1752 47.449C73.9616 47.2446 73.8547 46.952 73.8547 46.5711ZM83.2244 53.3225H81.0715V47.4281L81.0924 46.4596L81.1272 45.4006C80.7696 45.7582 80.5211 45.9928 80.3817 46.1043L79.2112 47.0449L78.1731 45.7489L81.4547 43.1362H83.2244V53.3225ZM89.9813 46.815C90.9661 46.815 91.7487 47.0913 92.3293 47.6441C92.9146 48.1968 93.2072 48.954 93.2072 49.9155C93.2072 51.0535 92.8565 51.929 92.1552 52.5422C91.4538 53.1553 90.4505 53.4619 89.1452 53.4619C88.0119 53.4619 87.0968 53.2784 86.4001 52.9114V51.0511C86.767 51.2462 87.1944 51.4065 87.6821 51.5319C88.1698 51.6527 88.632 51.713 89.0686 51.713C90.3831 51.713 91.0404 51.1742 91.0404 50.0966C91.0404 49.0701 90.3599 48.5568 88.9989 48.5568C88.7528 48.5568 88.481 48.5824 88.1837 48.6335C87.8865 48.6799 87.6449 48.731 87.4591 48.7867L86.6021 48.3269L86.9854 43.1362H92.5105V44.9616H88.8735L88.6854 46.9613L88.9293 46.9125C89.2126 46.8475 89.5633 46.815 89.9813 46.815Z" fill="#727272"/>
<path d="M150.423 30.4641H264.577C264.577 44.124 253.504 55.1974 239.844 55.1974H175.157C161.497 55.1974 150.423 44.124 150.423 30.4641Z" fill="white"/>
<rect x="180.413" y="39.9771" width="51.3692" height="3.80513" rx="1.90256" fill="#CFCFCF"/>
<circle cx="237.49" cy="41.8796" r="1.90256" fill="#CFCFCF"/>
<rect x="29.1346" y="27.1346" width="356.731" height="698.731" rx="47.0885" stroke="white" stroke-width="14.2692"/>
</g>
<defs>
<filter id="filter0_di_226_278" x="0.120512" y="0.974358" width="416.662" height="759.123" filterUnits="userSpaceOnUse" color-interpolation-filters="sRGB">
<feFlood flood-opacity="0" result="BackgroundImageFix"/>
<feColorMatrix in="SourceAlpha" type="matrix" values="0 0 0 0 0 0 0 0 0 0 0 0 0 0 0 0 0 0 127 0" result="hardAlpha"/>
<feOffset dx="0.951282" dy="3.80513"/>
<feGaussianBlur stdDeviation="11.4154"/>
<feColorMatrix type="matrix" values="0 0 0 0 0 0 0 0 0 0 0 0 0 0 0 0 0 0 0.35 0"/>
<feBlend mode="normal" in2="BackgroundImageFix" result="effect1_dropShadow_226_278"/>
<feBlend mode="normal" in="SourceGraphic" in2="effect1_dropShadow_226_278" result="shape"/>
<feColorMatrix in="SourceAlpha" type="matrix" values="0 0 0 0 0 0 0 0 0 0 0 0 0 0 0 0 0 0 127 0" result="hardAlpha"/>
<feOffset dx="-3.80513" dy="-8.56154"/>
<feGaussianBlur stdDeviation="3.32949"/>
<feComposite in2="hardAlpha" operator="arithmetic" k2="-1" k3="1"/>
<feColorMatrix type="matrix" values="0 0 0 0 0 0 0 0 0 0 0 0 0 0 0 0 0 0 0.19 0"/>
<feBlend mode="normal" in2="shape" result="effect2_innerShadow_226_278"/>
</filter>
<clipPath id="clip0_226_278">
<path d="M36.269 59.9539H378.731V699.705C378.731 710.738 369.787 719.682 358.754 719.682H56.2459C45.213 719.682 36.269 710.738 36.269 699.705V59.9539Z" fill="white"/>
</clipPath>
<clipPath id="clip1_226_278">
<rect width="40.835" height="16.6281" fill="white" transform="translate(219.495 673.549)"/>
</clipPath>
</defs>
</svg>
