<svg width="144" height="144" viewBox="0 0 144 144" fill="none" xmlns="http://www.w3.org/2000/svg">
<path d="M55.5 12C56.6935 12 57.8381 12.4741 58.682 13.318C59.5259 14.1619 60 15.3065 60 16.5V31.5C60 32.6935 59.5259 33.8381 58.682 34.682C57.8381 35.5259 56.6935 36 55.5 36C54.3065 36 53.1619 35.5259 52.318 34.682C51.4741 33.8381 51 32.6935 51 31.5V16.5C51 15.3065 51.4741 14.1619 52.318 13.318C53.1619 12.4741 54.3065 12 55.5 12ZM26.82 23.82C27.6638 22.9773 28.8075 22.504 30 22.504C31.1925 22.504 32.3362 22.9773 33.18 23.82L43.68 34.32C44.1221 34.732 44.4767 35.2288 44.7227 35.7808C44.9686 36.3328 45.1009 36.9286 45.1115 37.5329C45.1222 38.1371 45.0111 38.7373 44.7847 39.2976C44.5584 39.8579 44.2215 40.3669 43.7942 40.7942C43.3669 41.2215 42.8579 41.5584 42.2976 41.7847C41.7373 42.0111 41.1371 42.1222 40.5329 42.1115C39.9286 42.1009 39.3328 41.9686 38.7808 41.7227C38.2288 41.4767 37.732 41.1221 37.32 40.68L26.82 30.18C25.9773 29.3362 25.504 28.1925 25.504 27C25.504 25.8075 25.9773 24.6638 26.82 23.82V23.82ZM84.18 23.82C85.0227 24.6638 85.496 25.8075 85.496 27C85.496 28.1925 85.0227 29.3362 84.18 30.18L73.68 40.68C73.268 41.1221 72.7712 41.4767 72.2192 41.7227C71.6672 41.9686 71.0713 42.1009 70.4671 42.1115C69.8629 42.1222 69.2627 42.0111 68.7024 41.7847C68.1421 41.5584 67.6331 41.2215 67.2058 40.7942C66.7785 40.3669 66.4416 39.8579 66.2153 39.2976C65.9889 38.7373 65.8778 38.1371 65.8884 37.5329C65.8991 36.9286 66.0314 36.3328 66.2773 35.7808C66.5233 35.2288 66.8779 34.732 67.32 34.32L77.82 23.82C78.6638 22.9773 79.8075 22.504 81 22.504C82.1925 22.504 83.3362 22.9773 84.18 23.82V23.82ZM15 52.5C15 51.3065 15.4741 50.1619 16.318 49.318C17.1619 48.4741 18.3065 48 19.5 48H34.5C35.6935 48 36.8381 48.4741 37.682 49.318C38.5259 50.1619 39 51.3065 39 52.5C39 53.6935 38.5259 54.8381 37.682 55.682C36.8381 56.5259 35.6935 57 34.5 57H19.5C18.3065 57 17.1619 56.5259 16.318 55.682C15.4741 54.8381 15 53.6935 15 52.5ZM64.062 50.916C58.932 46.512 51 50.16 51 56.922V124.566C51 131.826 59.97 135.258 64.812 129.846L80.496 112.308C82.152 110.46 84.48 109.368 86.958 109.266L109.998 108.342C117.18 108.054 120.288 99.108 114.828 94.422L64.068 50.916H64.062ZM60 121.722V59.286L106.872 99.462L86.592 100.272C84.1634 100.37 81.7792 100.955 79.5808 101.992C77.3824 103.029 75.4146 104.496 73.794 106.308L60 121.722Z" fill="white"/>
</svg>
