<?xml version="1.0" encoding="utf-8"?>
<!-- Generator: Adobe Illustrator 25.3.1, SVG Export Plug-In . SVG Version: 6.00 Build 0)  -->
<svg version="1.1" id="Layer_1" xmlns="http://www.w3.org/2000/svg" xmlns:xlink="http://www.w3.org/1999/xlink" x="0px" y="0px"
	 viewBox="0 0 40 40" style="enable-background:new 0 0 40 40;" xml:space="preserve">
<g>
	<path d="M11.6,24.4c0.1-0.6,0-1.1-0.3-1.5c-1.1-1.6-2.1-3.2-3.1-4.9c-0.1-0.2-0.2-0.2-0.4-0.2c-0.7,0-1.4,0-2.1-0.1
		c-1.2-0.2-2.1-1.2-2.3-2.4c-0.1-0.6,0.1-0.9,0.8-0.9c1.7,0,3.5,0,5.2,0c1.5,0,2.5,0.9,2.8,2.4c0,0.1,0,0.2,0.1,0.3
		c0.6,0.7,1.2,1.4,1.7,2.1c1.2-0.8,2.6-1,4-1.5c0-0.2,0.1-0.5,0.1-0.8c0-0.1-0.1-0.2-0.1-0.2c-1-0.6-1.6-1.6-1.8-2.8
		c-0.8,0-1.5,0-1.7-1c-0.2-0.9,0.1-1.4,0.9-1.9c-0.2-0.2-0.4-0.4-0.6-0.6c-0.1-0.2-0.3-0.4-0.3-0.7c-0.1-1.6,0.5-2.9,2-3.8
		c0.5-0.3,1.1-0.5,1.8-0.5c1.2,0,2.4,0,3.6,0c2,0.1,3.6,1.7,3.7,3.7c0,0.7-0.1,1.2-0.6,1.6c-0.1,0-0.1,0.1-0.2,0.2c0,0,0,0,0,0
		c0.3,0.3,0.6,0.5,0.7,0.8c0.1,0.4,0.2,0.8,0.1,1.2c-0.2,0.9-0.9,0.9-1.7,0.9C23.6,15.1,23,16,22,16.7c-0.1,0-0.1,0.2-0.1,0.2
		c0,0.3,0.1,0.6,0.1,0.8c0.7,0.1,3.1,1,4,1.4c0.6-0.7,1.2-1.4,1.7-2.1c0.1-0.1,0.1-0.2,0.1-0.3c0.2-1.3,1.3-2.3,2.7-2.3
		c1.8,0,3.7,0,5.5,0c0.4,0,0.7,0.2,0.6,0.7c0,1.4-1.2,2.6-2.7,2.7c-0.6,0-1.2,0-1.8,0c-0.1,0-0.3,0.1-0.4,0.2
		c-1.1,1.7-2.3,3.5-3.4,5.3c-0.2,0.3-0.2,0.8-0.2,1.2c0.2,0,0.3,0,0.5,0c2,0,4.1,0,6.1,0c0.6,0,0.7,0.2,0.7,0.7c0,2.6,0,5.2,0,7.7
		c0,0.1,0,0.2,0,0.4c0.2,0,0.4,0,0.5,0c0.4,0,0.6,0.2,0.6,0.6c0,0.7,0,1.4,0,2.2c0,0.4-0.2,0.6-0.6,0.6c-0.1,0-0.2,0-0.3,0
		c-10.5,0-21,0-31.6,0c-0.8,0-0.9-0.1-0.9-0.9c0-0.6,0-1.1,0-1.7c0-0.6,0.2-0.8,0.8-0.8c0.1,0,0.2,0,0.3,0c0-0.1,0-0.3,0-0.4
		c0-2.6,0-5.1,0-7.7c0-0.6,0.2-0.8,0.8-0.8c2,0,4,0,6,0C11.4,24.4,11.5,24.4,11.6,24.4z M30.6,17.8c-0.7,0-1.3,0-1.9,0
		c-0.1,0-0.2,0.1-0.3,0.2c-0.7,0.9-1.4,1.7-2.1,2.6c-0.8,1-1.7,2.1-2.5,3.1c-0.3-0.2-0.6-0.5-0.9-0.7c0.8-1,1.6-1.9,2.4-2.9
		c-0.4-0.2-0.8-0.4-1.2-0.6c-0.8,1.1-1.5,2.1-2.2,3.1c-0.2,0.2-0.2,0.4-0.2,0.7c0.3,2,0.7,4,1,6c0,0.2,0,0.5-0.2,0.7
		c-0.7,0.7-1.4,1.4-2.1,2.1c-0.3,0.3-0.6,0.3-0.9,0c-0.7-0.7-1.4-1.4-2.1-2.1c-0.1-0.1-0.2-0.4-0.2-0.6c0.3-2,0.7-4,1-6
		c0-0.3,0-0.5-0.2-0.7c-0.7-0.9-1.3-1.9-2-2.8c-0.1-0.1-0.1-0.2-0.2-0.3c-0.4,0.2-0.7,0.4-1.1,0.6c0.8,1,1.6,2,2.4,2.9
		c-0.3,0.2-0.6,0.5-0.9,0.7c-0.1-0.2-0.2-0.3-0.4-0.4c-1.4-1.7-2.9-3.5-4.3-5.2c-0.1-0.1-0.2-0.2-0.3-0.2c-0.6,0-1.3,0-2,0
		c0.1,0.2,0.1,0.3,0.2,0.3c1,1.6,2,3.1,3,4.7c0.2,0.3,0.3,0.5,0.2,0.9c0,0.3,0,0.5,0,0.8c0.3,0,0.6,0,0.9,0c0.6,0,0.8,0.2,0.8,0.8
		c0,2.6,0,5.1,0,7.7c0,0.1,0,0.2,0,0.4c3.7,0,7.4,0,11.1,0c0-0.1,0-0.2,0-0.3c0-2.6,0-5.2,0-7.8c0-0.5,0.2-0.7,0.7-0.7
		c0.3,0,0.6,0,1,0c-0.3-1.1,0.3-1.9,0.8-2.7c0.1-0.1,0.2-0.3,0.3-0.4C29.1,20.2,29.9,19,30.6,17.8z M13.3,33.3c0-2.6,0-5.2,0-7.7
		c-0.7,0-1.5,0-2.2,0c0,0.5,0,1,0,1.5c0,0.6-0.2,0.7-0.8,0.7c-0.6,0-1.3,0-1.9,0c-0.5,0-0.7-0.2-0.7-0.7c0-0.5,0-1,0-1.5
		c-0.8,0-1.5,0-2.2,0c0,2.6,0,5.2,0,7.7C8.1,33.3,10.7,33.3,13.3,33.3z M32.2,25.6c0,0.5,0,1,0,1.5c0,0.5-0.2,0.7-0.7,0.7
		c-0.6,0-1.3,0-1.9,0c-0.6,0-0.8-0.2-0.8-0.8c0-0.5,0-1,0-1.4c-0.8,0-1.5,0-2.2,0c0,2.6,0,5.2,0,7.7c2.6,0,5.2,0,7.7,0
		c0-2.6,0-5.2,0-7.7C33.7,25.6,33,25.6,32.2,25.6z M4.5,35.5c10.4,0,20.7,0,31.1,0c0-0.4,0-0.7,0-1.1c-10.4,0-20.7,0-31.1,0
		C4.5,34.8,4.5,35.2,4.5,35.5z M22.7,10.4c-0.7-0.2-1.5-0.3-2.2-0.6c-1.1-0.4-2.1-0.3-3.1,0.4c0,0,0,0,0,0c-0.1,0.1-0.2,0.2-0.2,0.3
		c0,0.9,0,1.9,0,2.8c0,1.4,1.1,2.6,2.5,2.7c1.4,0.1,2.8-0.8,2.9-2.3C22.8,12.7,22.7,11.6,22.7,10.4z M16.1,10.3
		c-0.1-0.5,0.2-0.7,0.6-0.9c0.6-0.3,1.2-0.6,1.8-0.9c0.2-0.1,0.5-0.1,0.7-0.1C20.5,8.7,21.7,9,23,9.3c0.5,0.1,1,0.2,0.9,0.9
		c0.2-0.2,0.5-0.5,0.5-0.7c0.1-1.6-1.1-2.9-2.7-2.9c-1.1,0-2.3,0-3.4,0c-1.4,0-2.4,1-2.7,2.3C15.5,9.5,15.5,9.9,16.1,10.3z M21,25.6
		c-0.7,0-1.4,0-2,0c-0.2,1.2-0.4,2.3-0.6,3.5c0,0.1,0,0.2,0.1,0.3c0.5,0.5,1,1,1.6,1.6c0.5-0.5,1-1,1.5-1.5c0.1-0.1,0.1-0.2,0.1-0.3
		C21.4,27.9,21.2,26.8,21,25.6z M23,19.2c-0.6-0.3-0.6-0.3-1,0.1c-0.5,0.5-1,1-1.5,1.5c-0.4,0.4-0.6,0.4-1,0c-0.5-0.5-1-1-1.5-1.5
		c-0.4-0.4-0.4-0.4-1-0.1c0.5,0.6,0.9,1.3,1.4,1.9c0.3,0.4,0.5,0.9,0.9,1.1c0.4,0.2,0.9,0,1.4,0c0,0,0,0,0.1,0
		c0.1,0,0.2-0.1,0.2-0.1C21.6,21.1,22.3,20.2,23,19.2z M11,16.7c-0.2-0.6-0.8-1.1-1.6-1.1c-1.5,0-3.1,0-4.6,0c-0.1,0-0.2,0-0.2,0
		c0.2,0.6,0.8,1.1,1.6,1.1c1.5,0,3.1,0,4.6,0C10.8,16.7,10.9,16.7,11,16.7z M29,16.6C29.1,16.6,29.1,16.7,29,16.6c1.7,0,3.3,0,4.9,0
		c0.7,0,1.3-0.5,1.4-1.1c0,0,0,0-0.1,0c-1.6,0-3.3,0-4.9,0C29.8,15.6,29.2,16.1,29,16.6z M20,19.8c0.4-0.4,0.7-0.7,1-1
		c0.1-0.1,0.1-0.2,0.1-0.3c-0.1-0.5-0.1-0.9-0.2-1.4c-0.6,0-1.1,0-1.6,0c-0.1,0.4-0.2,0.9-0.2,1.3c0,0.1,0,0.2,0.1,0.3
		C19.3,19.1,19.6,19.4,20,19.8z M19.2,24.4c0.6,0,1.1,0,1.7,0c-0.1-0.4-0.1-0.7-0.2-1.1c-0.4,0-0.8,0-1.3,0
		C19.3,23.7,19.2,24,19.2,24.4z M10,25.6c-0.4,0-0.7,0-1.1,0c0,0.4,0,0.7,0,1.1c0.4,0,0.7,0,1.1,0C10,26.3,10,25.9,10,25.6z
		 M30,25.6c0,0.4,0,0.7,0,1.1c0.4,0,0.7,0,1.1,0c0-0.4,0-0.7,0-1.1C30.7,25.6,30.4,25.6,30,25.6z M15.6,12.2c0,0.2,0,0.4,0,0.5
		c0.2,0,0.4,0,0.5,0c0-0.2,0-0.3,0-0.5C15.9,12.2,15.8,12.2,15.6,12.2z M23.9,12.2c0,0.2,0,0.4,0,0.5c0.2,0,0.3,0,0.5,0
		c0-0.2,0-0.4,0-0.5C24.2,12.2,24.1,12.2,23.9,12.2z"/>
	<path d="M8.3,13.3c-1.1,0-2.1,0-3.2,0c-1.1,0-1.8-0.7-1.8-1.8c0-2.2,0-4.3,0-6.5c0-1,0.7-1.8,1.7-1.8c2.2,0,4.4,0,6.5,0
		c1,0,1.7,0.7,1.7,1.7c0,2.2,0,4.4,0,6.6c0,1-0.7,1.7-1.7,1.7C10.5,13.3,9.4,13.3,8.3,13.3z M12.2,8.3c0-1.1,0-2.1,0-3.2
		c0-0.5-0.2-0.7-0.7-0.7c-2.1,0-4.3,0-6.4,0c-0.5,0-0.7,0.2-0.7,0.7c0,2.1,0,4.3,0,6.4c0,0.5,0.2,0.7,0.7,0.7c2.1,0,4.3,0,6.4,0
		c0.5,0,0.7-0.2,0.7-0.7C12.2,10.5,12.2,9.4,12.2,8.3z"/>
	<path d="M31.7,3.3c2.8,0,5,2.3,5,5c0,2.8-2.3,5-5.1,5c-2.7,0-5-2.3-4.9-5C26.7,5.5,28.9,3.3,31.7,3.3z M27.8,8.3
		c0,2.1,1.7,3.9,3.8,3.9c2.2,0,3.9-1.7,3.9-3.9c0-2.1-1.7-3.9-3.8-3.9C29.5,4.4,27.8,6.2,27.8,8.3z"/>
	<path d="M11.1,8.9c-1.8,0-3.7,0-5.5,0c0-0.4,0-0.7,0-1.1c1.8,0,3.7,0,5.5,0C11.1,8.2,11.1,8.5,11.1,8.9z"/>
	<path d="M5.6,11.1c0-0.4,0-0.7,0-1.1c1.8,0,3.7,0,5.5,0c0,0.3,0,0.7,0,1.1C9.3,11.1,7.4,11.1,5.6,11.1z"/>
	<path d="M11.1,5.6c0,0.4,0,0.7,0,1.1c-1.1,0-2.2,0-3.3,0c0-0.3,0-0.7,0-1.1C8.9,5.6,10,5.6,11.1,5.6z"/>
	<path d="M5.6,6.6c0-0.4,0-0.7,0-1.1c0.4,0,0.7,0,1.1,0c0,0.3,0,0.7,0,1.1C6.3,6.6,5.9,6.6,5.6,6.6z"/>
	<path d="M31.1,8.7c0.8-0.8,1.6-1.6,2.4-2.4c0.3,0.3,0.5,0.5,0.7,0.8c0,0-0.1,0.1-0.2,0.2c-0.8,0.8-1.6,1.6-2.4,2.4
		c-0.4,0.4-0.7,0.4-1.1,0c-0.5-0.5-1-1-1.5-1.5c0.3-0.3,0.5-0.5,0.8-0.8C30.3,7.8,30.7,8.2,31.1,8.7z"/>
</g>
</svg>
